<svg aria-hidden="true" style="position: absolute; width: 0; height: 0; overflow: hidden;" version="1.1" xmlns="http://www.w3.org/2000/svg" xmlns:xlink="http://www.w3.org/1999/xlink">
<defs>
<symbol id="icon-logo" viewBox="0 0 120 32">
<path fill="#f22bb2" style="fill: var(--color1, #f22bb2)" d="M0.657 32h10.849c5.145 0 9.315-4.171 9.315-9.315h-10.849c-5.145 0-9.315 4.171-9.315 9.315z"></path>
<path fill="#8c30f5" style="fill: var(--color2, #8c30f5)" d="M0 9.315v13.699c5.145 0 9.315-4.171 9.315-9.315v-13.699c-5.145 0-9.315 4.17-9.315 9.315z"></path>
<path fill="#fe9a22" style="fill: var(--color3, #fe9a22)" d="M31.343 0h-10.849c-5.145 0-9.315 4.17-9.315 9.315h10.849c5.145 0 9.315-4.17 9.315-9.315z"></path>
<path fill="#2ec5ce" style="fill: var(--color4, #2ec5ce)" d="M31.343 22.137v-13.699c-5.145 0-9.315 4.17-9.315 9.315v13.699c5.145 0 9.315-4.171 9.315-9.315z"></path>
<path fill="#0b0d17" style="fill: var(--color5, #0b0d17)" d="M46.171 20.48v-12.48h-3.657v16h9.371v-3.52h-5.714z"></path>
<path fill="#0b0d17" style="fill: var(--color5, #0b0d17)" d="M61.568 12.571v1.074c-0.754-0.869-1.874-1.394-3.406-1.394-2.994 0-5.463 2.629-5.463 6.034s2.469 6.034 5.463 6.034c1.531 0 2.651-0.526 3.406-1.394v1.074h3.429v-11.429h-3.429zM58.848 21.074c-1.577 0-2.72-1.074-2.72-2.789s1.143-2.789 2.72-2.789c1.577 0 2.72 1.074 2.72 2.789s-1.143 2.789-2.72 2.789z"></path>
<path fill="#0b0d17" style="fill: var(--color5, #0b0d17)" d="M74.209 12.251c-1.509 0-2.651 0.549-3.269 1.394v-1.074h-3.429v11.429h3.429v-6.24c0-1.623 0.869-2.354 2.126-2.354 1.097 0 1.989 0.663 1.989 2.080v6.514h3.429v-7.017c0-3.086-1.966-4.731-4.274-4.731z"></path>
<path fill="#0b0d17" style="fill: var(--color5, #0b0d17)" d="M89.135 8v5.646c-0.754-0.869-1.874-1.394-3.406-1.394-2.994 0-5.463 2.629-5.463 6.034s2.469 6.034 5.463 6.034c1.531 0 2.651-0.526 3.406-1.394v1.074h3.429v-16h-3.429zM86.415 21.074c-1.577 0-2.72-1.074-2.72-2.789s1.143-2.789 2.72-2.789c1.577 0 2.72 1.074 2.72 2.789s-1.143 2.789-2.72 2.789z"></path>
<path fill="#0b0d17" style="fill: var(--color5, #0b0d17)" d="M96.793 11.566c1.12 0 2.057-0.937 2.057-2.057s-0.937-2.057-2.057-2.057c-1.12 0-2.057 0.937-2.057 2.057s0.937 2.057 2.057 2.057zM95.079 24h3.429v-11.429h-3.429v11.429z"></path>
<path fill="#0b0d17" style="fill: var(--color5, #0b0d17)" d="M107.302 10.971v-3.291c-3.794-0.229-5.554 1.691-5.554 4.891h-1.531v3.291h1.531v8.137h3.429v-8.137h2.126v-3.291h-2.126c0-1.326 0.846-1.714 2.126-1.6z"></path>
<path fill="#0b0d17" style="fill: var(--color5, #0b0d17)" d="M116.207 12.571l-2.148 6.994-2.537-6.994h-3.771l4.549 10.903c-0.503 1.394-1.257 1.897-2.857 1.897v3.2c3.2 0.16 5.234-1.28 6.514-4.914l3.909-11.086h-3.657z"></path>
</symbol>
<symbol id="icon-google-play" viewBox="0 0 108 32">
<path fill="#fff" style="fill: var(--color2, #fff)" d="M104 0h-100c-2.209 0-4 1.791-4 4v24c0 2.209 1.791 4 4 4h100c2.209 0 4-1.791 4-4v-24c0-2.209-1.791-4-4-4z"></path>
<path d="M104 0.64c0.891 0.001 1.745 0.355 2.374 0.985s0.985 1.484 0.986 2.375v24c-0.001 0.891-0.355 1.745-0.986 2.375s-1.483 0.984-2.374 0.985h-100c-0.891-0.001-1.745-0.355-2.375-0.985s-0.984-1.484-0.985-2.375v-24c0.001-0.891 0.355-1.745 0.985-2.375s1.484-0.984 2.375-0.985h100zM104 0h-100c-1.060 0.003-2.076 0.426-2.825 1.175s-1.172 1.765-1.175 2.825v24c0.003 1.060 0.426 2.076 1.175 2.825s1.765 1.172 2.825 1.175h100c1.060-0.003 2.075-0.426 2.825-1.175s1.172-1.765 1.175-2.825v-24c-0.003-1.060-0.426-2.076-1.175-2.825s-1.765-1.172-2.825-1.175v0z"></path>
<path d="M37.935 8.195c0.015 0.294-0.031 0.587-0.133 0.862s-0.26 0.527-0.463 0.74c-0.227 0.236-0.502 0.421-0.806 0.543s-0.63 0.179-0.957 0.167c-0.329 0.003-0.656-0.060-0.961-0.185s-0.581-0.31-0.814-0.543c-0.232-0.234-0.416-0.511-0.539-0.817s-0.185-0.632-0.18-0.962c-0.005-0.329 0.057-0.656 0.18-0.962s0.307-0.583 0.539-0.817 0.509-0.418 0.814-0.544c0.305-0.125 0.631-0.188 0.961-0.185 0.339-0.001 0.674 0.067 0.985 0.201 0.289 0.117 0.546 0.301 0.751 0.536l-0.422 0.422c-0.161-0.189-0.363-0.339-0.591-0.438s-0.475-0.144-0.723-0.132c-0.25-0.001-0.497 0.048-0.727 0.144s-0.439 0.239-0.613 0.418c-0.174 0.179-0.31 0.391-0.4 0.624s-0.132 0.481-0.124 0.731c-0.006 0.374 0.099 0.741 0.302 1.055s0.495 0.56 0.838 0.708c0.343 0.148 0.723 0.191 1.090 0.123s0.707-0.244 0.974-0.505c0.246-0.265 0.389-0.61 0.402-0.972h-1.743v-0.577h2.326c0.022 0.119 0.033 0.241 0.034 0.362v0z"></path>
<path d="M41.622 6.19h-2.186v1.522h1.971v0.577h-1.971v1.522h2.186v0.59h-2.802v-4.8h2.802v0.59z"></path>
<path d="M44.223 10.4h-0.617v-4.21h-1.341v-0.59h3.298v0.59h-1.341v4.21z"></path>
<path d="M47.95 10.4v-4.8h0.616v4.8h-0.616z"></path>
<path d="M51.303 10.4h-0.617v-4.21h-1.341v-0.59h3.298v0.59h-1.341v4.21z"></path>
<path d="M58.887 9.78c-0.467 0.466-1.1 0.727-1.76 0.727s-1.293-0.262-1.76-0.727c-0.231-0.234-0.413-0.512-0.534-0.818s-0.18-0.633-0.173-0.962c-0.007-0.329 0.051-0.656 0.173-0.962s0.303-0.584 0.534-0.818c0.231-0.231 0.505-0.414 0.807-0.539s0.625-0.189 0.952-0.189c0.327 0 0.65 0.065 0.952 0.19s0.576 0.309 0.806 0.54c0.231 0.234 0.413 0.511 0.535 0.816s0.181 0.632 0.175 0.96c0.007 0.329-0.052 0.656-0.173 0.962s-0.303 0.584-0.534 0.818v0zM55.823 9.378c0.346 0.345 0.815 0.539 1.304 0.539s0.958-0.194 1.304-0.539c0.177-0.182 0.316-0.397 0.408-0.634s0.134-0.49 0.126-0.744c0.009-0.254-0.034-0.507-0.126-0.744s-0.23-0.453-0.408-0.634c-0.346-0.345-0.815-0.539-1.304-0.539s-0.958 0.194-1.304 0.539c-0.177 0.182-0.316 0.398-0.407 0.634s-0.134 0.49-0.126 0.743c-0.009 0.254 0.034 0.507 0.126 0.743s0.23 0.453 0.407 0.634v0z"></path>
<path d="M60.46 10.4v-4.8h0.751l2.333 3.734h0.027l-0.027-0.925v-2.809h0.617v4.8h-0.644l-2.441-3.915h-0.027l0.027 0.925v2.99h-0.616z"></path>
<path d="M54.509 17.401c-0.672 0.003-1.329 0.204-1.887 0.58s-0.992 0.908-1.248 1.53c-0.256 0.622-0.321 1.306-0.188 1.965s0.458 1.264 0.934 1.739 1.083 0.797 1.742 0.928c0.66 0.13 1.343 0.062 1.964-0.196s1.152-0.694 1.525-1.253c0.373-0.559 0.572-1.217 0.572-1.889 0.007-0.45-0.077-0.896-0.247-1.313s-0.421-0.795-0.74-1.112c-0.319-0.317-0.698-0.568-1.115-0.735s-0.864-0.25-1.314-0.242v0zM54.509 22.866c-0.414 0.030-0.828-0.066-1.186-0.275s-0.647-0.521-0.826-0.895c-0.179-0.375-0.241-0.794-0.178-1.205s0.248-0.792 0.531-1.096c0.283-0.304 0.651-0.515 1.056-0.607s0.828-0.060 1.214 0.092c0.386 0.152 0.718 0.417 0.952 0.76s0.359 0.749 0.359 1.164c0.013 0.262-0.027 0.524-0.118 0.771s-0.229 0.473-0.408 0.665c-0.179 0.192-0.395 0.347-0.634 0.454s-0.498 0.166-0.761 0.172v0zM47.058 17.401c-0.672 0.003-1.329 0.204-1.887 0.58s-0.992 0.908-1.248 1.53c-0.256 0.622-0.321 1.306-0.188 1.965s0.458 1.264 0.934 1.739c0.476 0.475 1.083 0.797 1.742 0.928s1.343 0.062 1.964-0.196c0.621-0.258 1.152-0.694 1.525-1.253s0.572-1.217 0.572-1.889c0.007-0.45-0.077-0.896-0.247-1.313s-0.421-0.795-0.74-1.112-0.698-0.568-1.115-0.735c-0.417-0.168-0.864-0.25-1.314-0.242v0zM47.058 22.866c-0.414 0.030-0.828-0.066-1.186-0.275s-0.647-0.521-0.826-0.895c-0.179-0.375-0.241-0.794-0.178-1.205s0.248-0.792 0.531-1.096c0.283-0.304 0.651-0.515 1.056-0.607s0.828-0.060 1.214 0.092c0.386 0.152 0.718 0.417 0.952 0.76s0.359 0.749 0.359 1.164c0.013 0.262-0.027 0.524-0.118 0.771s-0.229 0.473-0.408 0.665-0.395 0.347-0.634 0.454c-0.24 0.108-0.498 0.166-0.761 0.172zM38.195 18.445v1.443h3.454c-0.050 0.677-0.327 1.317-0.786 1.817-0.346 0.353-0.762 0.629-1.222 0.811s-0.952 0.266-1.446 0.246c-1.010-0.014-1.973-0.424-2.682-1.143s-1.107-1.688-1.107-2.698c0-1.010 0.398-1.979 1.107-2.698s1.673-1.129 2.682-1.143c0.97-0.013 1.905 0.358 2.604 1.031l1.018-1.018c-0.476-0.472-1.042-0.843-1.664-1.093s-1.287-0.373-1.958-0.363c-0.7-0.010-1.396 0.119-2.046 0.38s-1.242 0.649-1.741 1.14c-0.499 0.492-0.895 1.078-1.166 1.724s-0.41 1.34-0.41 2.040 0.139 1.394 0.41 2.040c0.27 0.646 0.667 1.232 1.166 1.724s1.091 0.879 1.741 1.14c0.65 0.261 1.346 0.39 2.046 0.38 0.684 0.028 1.367-0.089 2.002-0.345s1.209-0.643 1.684-1.138c0.842-0.919 1.291-2.131 1.25-3.377 0.003-0.302-0.023-0.605-0.077-0.902h-4.859zM74.442 19.567c-0.204-0.616-0.594-1.155-1.115-1.542s-1.149-0.605-1.798-0.623c-0.437 0.003-0.869 0.094-1.27 0.268s-0.762 0.428-1.062 0.746c-0.3 0.318-0.532 0.694-0.683 1.104s-0.217 0.847-0.194 1.284c-0.010 0.447 0.071 0.892 0.236 1.308s0.414 0.793 0.729 1.111 0.691 0.568 1.105 0.737c0.414 0.169 0.858 0.253 1.306 0.246 0.561 0.003 1.113-0.133 1.608-0.396s0.917-0.645 1.227-1.112l-1.16-0.773c-0.174 0.289-0.42 0.527-0.713 0.692s-0.625 0.251-0.962 0.249c-0.347 0.013-0.689-0.078-0.983-0.262s-0.526-0.452-0.666-0.769l4.55-1.882-0.155-0.387zM69.802 20.701c-0.016-0.248 0.018-0.496 0.099-0.731s0.208-0.45 0.374-0.635c0.166-0.185 0.366-0.335 0.591-0.441s0.467-0.167 0.715-0.178c0.258-0.017 0.516 0.042 0.74 0.171s0.406 0.32 0.523 0.551l-3.042 1.263zM66.103 24h1.495v-10.001h-1.495v10.001zM63.654 18.162h-0.052c-0.227-0.247-0.505-0.443-0.814-0.574s-0.642-0.195-0.978-0.187c-0.877 0.037-1.706 0.412-2.314 1.046s-0.947 1.478-0.947 2.356c0 0.878 0.339 1.722 0.947 2.356s1.437 1.009 2.314 1.046c0.337 0.009 0.672-0.056 0.981-0.189s0.586-0.333 0.81-0.584h0.052v0.49c0 1.302-0.696 1.998-1.817 1.998-0.374-0.009-0.736-0.129-1.042-0.345s-0.539-0.518-0.673-0.867l-1.302 0.541c0.245 0.597 0.663 1.108 1.201 1.466s1.169 0.548 1.815 0.545c1.753 0 3.235-1.031 3.235-3.544v-6.109h-1.418v0.554zM61.94 22.866c-0.517-0.044-0.998-0.28-1.349-0.662s-0.546-0.882-0.546-1.4c0-0.519 0.195-1.018 0.546-1.4s0.832-0.618 1.349-0.662c0.257 0.013 0.509 0.077 0.741 0.189s0.439 0.27 0.608 0.463c0.17 0.194 0.298 0.419 0.379 0.664s0.111 0.503 0.089 0.759c0.020 0.255-0.011 0.511-0.093 0.754s-0.211 0.466-0.38 0.657c-0.17 0.191-0.376 0.346-0.607 0.456s-0.482 0.172-0.737 0.182v0zM81.445 13.999h-3.577v10.001h1.493v-3.789h2.085c0.422 0.023 0.845-0.040 1.242-0.186s0.76-0.371 1.067-0.661c0.307-0.291 0.551-0.641 0.718-1.029s0.254-0.807 0.254-1.23c0-0.423-0.086-0.841-0.254-1.23s-0.411-0.739-0.718-1.029c-0.307-0.291-0.67-0.516-1.067-0.661s-0.819-0.209-1.242-0.186v0zM81.483 18.819h-2.123v-3.428h2.123c0.228-0.005 0.455 0.036 0.667 0.12s0.405 0.21 0.568 0.369c0.163 0.16 0.293 0.35 0.381 0.561s0.134 0.436 0.134 0.664c0 0.228-0.046 0.454-0.134 0.664s-0.218 0.401-0.381 0.561c-0.163 0.16-0.356 0.285-0.568 0.369s-0.439 0.125-0.667 0.12v0zM90.709 17.383c-0.545-0.032-1.087 0.096-1.561 0.368s-0.856 0.676-1.103 1.163l1.326 0.553c0.131-0.242 0.33-0.44 0.573-0.57s0.517-0.187 0.791-0.164c0.378-0.037 0.756 0.078 1.050 0.319s0.481 0.589 0.519 0.968v0.103c-0.479-0.255-1.014-0.387-1.557-0.386-1.428 0-2.882 0.785-2.882 2.252 0.014 0.309 0.090 0.612 0.223 0.892s0.322 0.529 0.553 0.734c0.232 0.205 0.502 0.362 0.795 0.46s0.604 0.137 0.912 0.114c0.376 0.022 0.751-0.057 1.086-0.229s0.618-0.431 0.819-0.749h0.051v0.772h1.441v-3.834c0-1.776-1.325-2.766-3.036-2.766v0zM90.529 22.864c-0.49 0-1.171-0.244-1.171-0.849 0-0.772 0.849-1.068 1.582-1.068 0.477-0.013 0.947 0.103 1.364 0.335-0.055 0.434-0.265 0.833-0.591 1.124s-0.747 0.454-1.184 0.459v0zM98.994 17.602l-1.711 4.336h-0.051l-1.776-4.336h-1.608l2.663 6.060-1.518 3.371h1.557l4.105-9.431h-1.66zM85.549 24h1.493v-10.001h-1.493v10.001z"></path>
<path d="M8.348 6.031c-0.262 0.314-0.395 0.716-0.37 1.124v17.693c-0.025 0.408 0.108 0.81 0.37 1.124l0.059 0.058 9.911-9.911v-0.234l-9.911-9.912-0.059 0.058z"></path>
<path d="M21.622 19.423l-3.304-3.305v-0.234l3.304-3.304 0.074 0.042 3.914 2.224c1.118 0.635 1.118 1.675 0 2.31l-3.99 2.267z"></path>
<path d="M21.697 19.38l-3.379-3.379-9.97 9.97c0.228 0.201 0.519 0.316 0.822 0.325s0.601-0.089 0.84-0.276l11.687-6.64z"></path>
<path d="M21.697 12.622l-11.687-6.64c-0.239-0.187-0.536-0.285-0.84-0.276s-0.595 0.124-0.822 0.325l9.97 9.97 3.379-3.379z"></path>
<path d="M21.623 19.306l-11.612 6.598c-0.23 0.175-0.511 0.271-0.8 0.272s-0.571-0.091-0.803-0.264l-0.060 0.060 0.059 0.058 0-0c0.232 0.173 0.514 0.265 0.803 0.264s0.57-0.097 0.8-0.272l11.687-6.64-0.074-0.074z"></path>
<path d="M8.348 25.855c-0.262-0.314-0.395-0.716-0.37-1.124v0.117c-0.025 0.408 0.108 0.81 0.37 1.124l0.060-0.060-0.060-0.057z"></path>
<path d="M25.612 17.039l-3.989 2.267 0.074 0.074 3.914-2.224c0.23-0.1 0.43-0.26 0.577-0.463s0.238-0.442 0.262-0.692c-0.050 0.226-0.151 0.438-0.297 0.618s-0.331 0.324-0.542 0.42v0z"></path>
<path d="M10.011 6.099l15.601 8.864c0.211 0.096 0.397 0.24 0.542 0.42s0.247 0.392 0.296 0.618c-0.024-0.25-0.114-0.489-0.261-0.692s-0.347-0.363-0.577-0.463l-15.601-8.864c-1.118-0.635-2.033-0.108-2.033 1.173v0.117c0-1.281 0.915-1.808 2.033-1.173z"></path>
</symbol>
<symbol id="icon-arrow" viewBox="0 0 50 32">
<path d="M32.67 3.902c-0.893-0.893-0.893-2.34 0-3.232s2.34-0.893 3.233 0l13.714 13.714c0.893 0.893 0.893 2.34 0 3.232l-13.714 13.714c-0.893 0.893-2.34 0.893-3.233 0s-0.893-2.34 0-3.232l9.812-9.812h-40.171c-1.276 0-2.311-1.023-2.311-2.286s1.035-2.286 2.311-2.286h40.171l-9.812-9.812z"></path>
</symbol>
<symbol id="icon-first" viewBox="0 0 28 32">
<path fill="#d6b1ff" style="fill: var(--color1, #d6b1ff)" d="M26 32h-12c-0.354 0-0.693-0.14-0.943-0.39s-0.39-0.589-0.39-0.943v-2.667c0-0.354 0.14-0.693 0.39-0.943s0.589-0.39 0.943-0.39h12c0.354 0 0.693 0.14 0.943 0.39s0.39 0.589 0.39 0.943v2.667c0 0.354-0.14 0.693-0.39 0.943s-0.589 0.39-0.943 0.39z"></path>
<path fill="#2ec5ce" style="fill: var(--color2, #2ec5ce)" d="M26 0h-24c-0.354 0-0.693 0.14-0.943 0.391s-0.391 0.589-0.391 0.943v2.667c0 0.354 0.14 0.693 0.391 0.943s0.589 0.391 0.943 0.391h24c0.354 0 0.693-0.14 0.943-0.391s0.39-0.589 0.39-0.943v-2.667c0-0.354-0.14-0.693-0.39-0.943s-0.589-0.391-0.943-0.391z"></path>
<path fill="#8c30f5" style="fill: var(--color3, #8c30f5)" d="M26 8h-24c-0.354 0-0.693 0.14-0.943 0.391s-0.391 0.589-0.391 0.943v13.333c0 0.354 0.14 0.693 0.391 0.943s0.589 0.39 0.943 0.39h24c0.354 0 0.693-0.14 0.943-0.39s0.39-0.589 0.39-0.943v-13.333c0-0.354-0.14-0.693-0.39-0.943s-0.589-0.391-0.943-0.391z"></path>
</symbol>
<symbol id="icon-second" viewBox="0 0 32 32">
<path fill="#8c30f5" style="fill: var(--color3, #8c30f5)" d="M11.733 13.156h-9.956c-0.377 0-0.739-0.15-1.006-0.417s-0.417-0.628-0.417-1.006v-9.956c0-0.377 0.15-0.739 0.417-1.006s0.628-0.417 1.006-0.417h9.956c0.377 0 0.739 0.15 1.006 0.417s0.417 0.628 0.417 1.006v9.956c0 0.377-0.15 0.739-0.417 1.006s-0.628 0.417-1.006 0.417z"></path>
<path fill="#8c30f5" style="fill: var(--color3, #8c30f5)" d="M11.733 31.644h-9.956c-0.377 0-0.739-0.15-1.006-0.417s-0.417-0.628-0.417-1.006v-9.956c0-0.377 0.15-0.739 0.417-1.006s0.628-0.417 1.006-0.417h9.956c0.377 0 0.739 0.15 1.006 0.417s0.417 0.628 0.417 1.006v9.956c0 0.377-0.15 0.739-0.417 1.006s-0.628 0.417-1.006 0.417z"></path>
<path fill="#2ec5ce" style="fill: var(--color2, #2ec5ce)" d="M17.422 1.778h14.222v2.844h-14.222v-2.844z"></path>
<path fill="#2ec5ce" style="fill: var(--color2, #2ec5ce)" d="M31.644 20.267h-14.222v2.844h14.222v-2.844z"></path>
<path fill="#d6b1ff" style="fill: var(--color1, #d6b1ff)" d="M31.644 27.378h-14.222v2.844h14.222v-2.844z"></path>
<path fill="#d6b1ff" style="fill: var(--color1, #d6b1ff)" d="M31.644 8.889h-14.222v2.844h14.222v-2.844z"></path>
</symbol>
<symbol id="icon-third" viewBox="0 0 32 32">
<path fill="#d6b1ff" style="fill: var(--color1, #d6b1ff)" d="M24 13.333h8l-4-5.333-4 5.333zM24 18.667h8l-4 5.333-4-5.333z"></path>
<path fill="#8c30f5" style="fill: var(--color3, #8c30f5)" d="M1.333 0h8v32h-8c-0.354 0-0.693-0.14-0.943-0.39s-0.391-0.589-0.391-0.943v-29.333c0-0.354 0.14-0.693 0.391-0.943s0.589-0.391 0.943-0.391z"></path>
<path fill="#2ec5ce" style="fill: var(--color2, #2ec5ce)" d="M12 0h8c0.354 0 0.693 0.14 0.943 0.391s0.39 0.589 0.39 0.943v29.333c0 0.354-0.14 0.693-0.39 0.943s-0.589 0.39-0.943 0.39h-8v-32z"></path>
</symbol>
<symbol id="icon-fourth" viewBox="0 0 32 32">
<path fill="#d6b1ff" style="fill: var(--color1, #d6b1ff)" d="M6.044 0.356h-4.267c-0.377 0-0.739 0.15-1.006 0.417s-0.417 0.628-0.417 1.006v28.444c0 0.377 0.15 0.739 0.417 1.006s0.628 0.417 1.006 0.417h4.267v-31.289z"></path>
<path fill="#8c30f5" style="fill: var(--color3, #8c30f5)" d="M8.889 31.644h14.222v-31.289h-14.222v31.289zM16 25.956c-0.377 0-0.739-0.15-1.006-0.417s-0.417-0.628-0.417-1.006 0.15-0.739 0.417-1.006c0.267-0.267 0.628-0.417 1.006-0.417s0.739 0.15 1.006 0.417c0.267 0.267 0.417 0.628 0.417 1.006s-0.15 0.739-0.417 1.006c-0.267 0.267-0.628 0.417-1.006 0.417zM16 6.044c0.377 0 0.739 0.15 1.006 0.417s0.417 0.628 0.417 1.006-0.15 0.739-0.417 1.006c-0.267 0.267-0.628 0.417-1.006 0.417s-0.739-0.15-1.006-0.417c-0.267-0.267-0.417-0.628-0.417-1.006s0.15-0.739 0.417-1.006c0.267-0.267 0.628-0.417 1.006-0.417zM16 14.578c0.377 0 0.739 0.15 1.006 0.417s0.417 0.628 0.417 1.006-0.15 0.739-0.417 1.006c-0.267 0.267-0.628 0.417-1.006 0.417s-0.739-0.15-1.006-0.417c-0.267-0.267-0.417-0.628-0.417-1.006s0.15-0.739 0.417-1.006c0.267-0.267 0.628-0.417 1.006-0.417z"></path>
<path fill="#2ec5ce" style="fill: var(--color2, #2ec5ce)" d="M30.222 0.356h-4.267v31.289h4.267c0.377 0 0.739-0.15 1.006-0.417s0.417-0.628 0.417-1.006v-28.444c0-0.377-0.15-0.739-0.417-1.006s-0.628-0.417-1.006-0.417z"></path>
</symbol>
<symbol id="icon-nav-btn" viewBox="0 0 64 32">
<path d="M5.172 1.172c1.562-1.562 4.095-1.562 5.657 0l21.172 21.172 21.172-21.172c1.562-1.562 4.095-1.562 5.657 0s1.562 4.095 0 5.657l-24 24c-1.562 1.562-4.095 1.562-5.657 0l-24-24c-1.562-1.562-1.562-4.095 0-5.657z"></path>
</symbol>
<symbol id="icon-app-store" viewBox="0 0 108 32">
<path d="M99.399-0h-90.794c-0.331 0-0.658 0-0.988 0.002-0.276 0.002-0.55 0.006-0.829 0.010-0.606 0.006-1.211 0.054-1.809 0.141-0.597 0.090-1.175 0.259-1.716 0.502-0.539 0.245-1.032 0.563-1.461 0.943-0.431 0.379-0.79 0.817-1.063 1.297s-0.465 0.993-0.564 1.523c-0.101 0.529-0.155 1.065-0.162 1.602-0.008 0.245-0.009 0.491-0.014 0.737v18.491c0.004 0.248 0.005 0.489 0.014 0.738 0.007 0.537 0.061 1.072 0.162 1.602 0.099 0.53 0.289 1.044 0.564 1.523 0.273 0.479 0.633 0.915 1.063 1.291 0.427 0.382 0.92 0.7 1.461 0.943s1.118 0.414 1.716 0.505c0.598 0.087 1.203 0.134 1.809 0.141 0.279 0.005 0.553 0.009 0.829 0.009 0.33 0.002 0.657 0.002 0.988 0.002h90.794c0.325 0 0.654 0 0.978-0.002 0.275 0 0.558-0.003 0.832-0.009 0.605-0.007 1.209-0.054 1.806-0.141 0.599-0.092 1.179-0.262 1.722-0.505 0.541-0.243 1.034-0.562 1.46-0.943 0.43-0.378 0.79-0.814 1.066-1.291 0.273-0.48 0.461-0.993 0.558-1.523 0.101-0.529 0.157-1.065 0.168-1.602 0.003-0.248 0.003-0.489 0.003-0.738 0.007-0.291 0.007-0.58 0.007-0.875v-16.743c0-0.293 0-0.584-0.007-0.873 0-0.245 0-0.491-0.003-0.737-0.011-0.537-0.067-1.072-0.168-1.602-0.098-0.53-0.286-1.043-0.558-1.523-0.557-0.962-1.441-1.746-2.526-2.24-0.542-0.242-1.122-0.411-1.722-0.502-0.597-0.088-1.2-0.135-1.806-0.141-0.274-0.004-0.557-0.009-0.832-0.010-0.324-0.002-0.654-0.002-0.978-0.002v0z"></path>
<path fill="#fff" style="fill: var(--color2, #fff)" d="M7.544 31.302c-0.275 0-0.544-0.003-0.818-0.009-0.566-0.007-1.131-0.050-1.69-0.131-0.521-0.079-1.026-0.227-1.498-0.438-0.468-0.209-0.894-0.484-1.263-0.813-0.374-0.325-0.686-0.703-0.923-1.117-0.239-0.417-0.405-0.864-0.491-1.326-0.093-0.496-0.143-0.998-0.151-1.5-0.006-0.169-0.013-0.731-0.013-0.731v-18.484c0 0 0.008-0.553 0.013-0.716 0.007-0.502 0.057-1.003 0.15-1.498 0.086-0.463 0.252-0.911 0.491-1.33 0.236-0.414 0.546-0.792 0.918-1.119 0.372-0.33 0.799-0.606 1.268-0.818 0.471-0.211 0.975-0.357 1.495-0.435 0.561-0.081 1.127-0.125 1.696-0.131l0.816-0.010 93.737 0.010c0.563 0.006 1.125 0.049 1.68 0.13 0.526 0.079 1.034 0.227 1.51 0.438 0.938 0.428 1.702 1.105 2.184 1.936 0.235 0.416 0.398 0.861 0.483 1.319 0.094 0.499 0.146 1.004 0.158 1.51 0.002 0.227 0.002 0.47 0.002 0.712 0.007 0.3 0.007 0.586 0.007 0.874v16.746c0 0.291 0 0.574-0.007 0.86 0 0.26 0 0.499-0.003 0.744-0.011 0.497-0.062 0.993-0.154 1.483-0.085 0.465-0.25 0.916-0.489 1.336-0.238 0.41-0.548 0.784-0.918 1.109-0.37 0.331-0.797 0.607-1.266 0.818-0.475 0.213-0.983 0.361-1.508 0.44-0.558 0.081-1.124 0.124-1.69 0.131-0.265 0.005-0.542 0.009-0.811 0.009l-0.981 0.002-91.936-0.002z"></path>
<path d="M26.238 16.24c0.009-0.668 0.186-1.322 0.516-1.903s0.801-1.069 1.37-1.418c-0.361-0.516-0.838-0.941-1.392-1.24s-1.171-0.466-1.801-0.486c-1.343-0.141-2.646 0.804-3.33 0.804-0.698 0-1.752-0.79-2.887-0.767-0.734 0.024-1.45 0.237-2.077 0.62s-1.144 0.921-1.502 1.563c-1.547 2.679-0.393 6.616 1.089 8.781 0.742 1.060 1.608 2.245 2.742 2.203 1.11-0.046 1.524-0.708 2.864-0.708 1.327 0 1.716 0.708 2.873 0.681 1.191-0.019 1.941-1.065 2.656-2.135 0.533-0.756 0.943-1.59 1.215-2.474-0.692-0.293-1.282-0.782-1.697-1.408s-0.637-1.36-0.638-2.111z"></path>
<path d="M24.053 9.769c0.649-0.779 0.969-1.781 0.892-2.792-0.992 0.104-1.908 0.578-2.566 1.328-0.322 0.366-0.568 0.792-0.725 1.254s-0.222 0.949-0.19 1.436c0.496 0.005 0.987-0.102 1.435-0.314s0.843-0.523 1.154-0.91z"></path>
<path d="M40.265 21.712h-3.787l-0.909 2.685h-1.604l3.587-9.934h1.666l3.587 9.934h-1.631l-0.909-2.685zM36.87 20.473h3.002l-1.48-4.358h-0.041l-1.48 4.358z"></path>
<path d="M50.55 20.776c0 2.251-1.205 3.697-3.023 3.697-0.461 0.024-0.919-0.082-1.322-0.306s-0.735-0.557-0.957-0.961h-0.034v3.588h-1.487v-9.639h1.439v1.205h0.027c0.233-0.402 0.57-0.733 0.976-0.959s0.866-0.337 1.33-0.322c1.838 0 3.050 1.453 3.050 3.698zM49.022 20.776c0-1.466-0.758-2.43-1.914-2.43-1.136 0-1.9 0.984-1.9 2.43 0 1.459 0.764 2.437 1.9 2.437 1.156 0 1.914-0.957 1.914-2.437z"></path>
<path d="M58.522 20.776c0 2.251-1.205 3.697-3.023 3.697-0.46 0.024-0.918-0.082-1.322-0.306s-0.735-0.557-0.957-0.961h-0.034v3.588h-1.487v-9.639h1.439v1.205h0.027c0.233-0.402 0.57-0.733 0.976-0.959s0.866-0.337 1.33-0.322c1.838 0 3.050 1.453 3.050 3.698zM56.994 20.776c0-1.466-0.758-2.43-1.914-2.43-1.136 0-1.9 0.984-1.9 2.43 0 1.459 0.764 2.437 1.9 2.437 1.156 0 1.914-0.957 1.914-2.437v0z"></path>
<path d="M63.791 21.629c0.11 0.985 1.067 1.632 2.375 1.632 1.253 0 2.155-0.647 2.155-1.535 0-0.771-0.544-1.233-1.831-1.549l-1.287-0.31c-1.824-0.441-2.671-1.294-2.671-2.678 0-1.714 1.494-2.891 3.615-2.891 2.099 0 3.538 1.177 3.587 2.891h-1.501c-0.090-0.991-0.909-1.59-2.107-1.59s-2.017 0.605-2.017 1.487c0 0.702 0.523 1.116 1.804 1.432l1.094 0.269c2.038 0.482 2.885 1.301 2.885 2.754 0 1.859-1.48 3.023-3.835 3.023-2.203 0-3.691-1.137-3.787-2.934l1.522 0z"></path>
<path d="M73.1 15.44v1.714h1.377v1.177h-1.377v3.993c0 0.62 0.276 0.909 0.881 0.909 0.164-0.003 0.327-0.014 0.489-0.034v1.17c-0.272 0.051-0.549 0.074-0.826 0.069-1.466 0-2.038-0.551-2.038-1.955v-4.152h-1.053v-1.177h1.053v-1.714h1.494z"></path>
<path d="M75.275 20.776c0-2.279 1.342-3.711 3.435-3.711 2.1 0 3.436 1.432 3.436 3.711 0 2.285-1.329 3.711-3.436 3.711s-3.435-1.426-3.435-3.711zM80.631 20.776c0-1.563-0.717-2.486-1.921-2.486s-1.92 0.93-1.92 2.486c0 1.57 0.716 2.485 1.92 2.485s1.921-0.916 1.921-2.485v0z"></path>
<path d="M83.371 17.154h1.418v1.233h0.034c0.096-0.385 0.322-0.725 0.638-0.964s0.707-0.36 1.104-0.345c0.171-0.001 0.342 0.018 0.509 0.055v1.391c-0.216-0.066-0.442-0.096-0.668-0.090-0.216-0.009-0.431 0.029-0.631 0.112s-0.379 0.207-0.526 0.365-0.258 0.347-0.326 0.552c-0.068 0.205-0.090 0.423-0.066 0.638v4.296h-1.487v-7.243z"></path>
<path d="M93.93 22.27c-0.2 1.315-1.481 2.217-3.119 2.217-2.107 0-3.414-1.412-3.414-3.677 0-2.272 1.314-3.745 3.352-3.745 2.004 0 3.264 1.377 3.264 3.573v0.509h-5.115v0.090c-0.024 0.267 0.010 0.535 0.098 0.788s0.229 0.484 0.414 0.678c0.184 0.194 0.407 0.347 0.655 0.448s0.514 0.148 0.782 0.138c0.351 0.033 0.704-0.048 1.006-0.232s0.535-0.459 0.667-0.787h1.412zM88.904 20.108h3.622c0.014-0.24-0.023-0.48-0.107-0.705s-0.213-0.43-0.379-0.603c-0.167-0.173-0.368-0.309-0.59-0.4s-0.461-0.136-0.701-0.131c-0.242-0.001-0.482 0.045-0.706 0.137s-0.427 0.227-0.598 0.398c-0.172 0.171-0.308 0.374-0.4 0.598s-0.14 0.464-0.14 0.706v0z"></path>
<path d="M36.684 6.985c0.312-0.022 0.624 0.025 0.916 0.138s0.554 0.29 0.769 0.516c0.215 0.227 0.377 0.499 0.474 0.796s0.127 0.612 0.088 0.922c0 1.525-0.824 2.402-2.246 2.402h-1.724v-4.773h1.724zM35.701 11.083h0.9c0.223 0.013 0.446-0.023 0.652-0.107s0.392-0.212 0.543-0.377c0.151-0.164 0.263-0.36 0.329-0.574s0.083-0.439 0.050-0.659c0.030-0.22 0.011-0.444-0.055-0.655s-0.179-0.406-0.329-0.569c-0.15-0.163-0.335-0.291-0.541-0.374s-0.427-0.12-0.649-0.108h-0.9v3.424z"></path>
<path d="M39.767 9.955c-0.023-0.237 0.004-0.476 0.080-0.701s0.196-0.433 0.356-0.609c0.16-0.176 0.355-0.317 0.572-0.413s0.453-0.146 0.69-0.146c0.238 0 0.473 0.050 0.691 0.146s0.412 0.237 0.572 0.413c0.16 0.176 0.281 0.384 0.356 0.609s0.102 0.465 0.080 0.701c0.023 0.237-0.004 0.476-0.079 0.702s-0.196 0.434-0.356 0.61c-0.16 0.176-0.355 0.317-0.573 0.414s-0.453 0.146-0.691 0.146c-0.238 0-0.474-0.050-0.691-0.146s-0.413-0.237-0.573-0.414c-0.16-0.176-0.281-0.384-0.356-0.61s-0.102-0.465-0.079-0.702zM42.434 9.955c0-0.781-0.351-1.238-0.966-1.238-0.618 0-0.966 0.457-0.966 1.238 0 0.787 0.348 1.24 0.966 1.24 0.616 0 0.966-0.456 0.966-1.24v0z"></path>
<path d="M47.681 11.758h-0.738l-0.745-2.653h-0.056l-0.741 2.653h-0.73l-0.993-3.602h0.721l0.645 2.749h0.053l0.741-2.749h0.682l0.741 2.749h0.056l0.642-2.749h0.711l-0.989 3.602z"></path>
<path d="M49.506 8.156h0.684v0.572h0.053c0.090-0.206 0.242-0.378 0.435-0.493s0.416-0.167 0.64-0.149c0.175-0.013 0.351 0.013 0.515 0.077s0.311 0.164 0.431 0.293c0.12 0.129 0.209 0.283 0.261 0.45s0.066 0.345 0.040 0.519v2.332h-0.711v-2.153c0-0.579-0.252-0.867-0.777-0.867-0.119-0.006-0.238 0.015-0.348 0.059s-0.21 0.113-0.292 0.199-0.144 0.19-0.182 0.303c-0.038 0.113-0.051 0.233-0.039 0.351v2.107h-0.711v-3.602z"></path>
<path d="M53.698 6.75h0.711v5.009h-0.711v-5.009z"></path>
<path d="M55.397 9.956c-0.023-0.237 0.004-0.476 0.080-0.701s0.197-0.433 0.357-0.609c0.16-0.176 0.355-0.317 0.572-0.413s0.453-0.146 0.691-0.146c0.238 0 0.473 0.050 0.69 0.146s0.412 0.237 0.572 0.413c0.16 0.176 0.281 0.383 0.356 0.609s0.102 0.464 0.080 0.701c0.023 0.237-0.004 0.476-0.079 0.702s-0.196 0.434-0.356 0.61-0.355 0.317-0.573 0.414c-0.218 0.096-0.453 0.146-0.691 0.146s-0.474-0.050-0.691-0.146c-0.218-0.096-0.413-0.237-0.573-0.414s-0.281-0.384-0.356-0.61c-0.075-0.226-0.102-0.465-0.079-0.702zM58.063 9.956c0-0.781-0.351-1.238-0.966-1.238-0.618 0-0.966 0.457-0.966 1.238 0 0.787 0.348 1.24 0.966 1.24 0.616 0 0.966-0.456 0.966-1.24v0z"></path>
<path d="M59.543 10.739c0-0.648 0.483-1.022 1.34-1.075l0.976-0.056v-0.311c0-0.38-0.252-0.595-0.738-0.595-0.397 0-0.672 0.146-0.751 0.4h-0.688c0.073-0.619 0.655-1.016 1.472-1.016 0.903 0 1.412 0.45 1.412 1.211v2.461h-0.684v-0.506h-0.056c-0.114 0.182-0.274 0.33-0.465 0.429s-0.403 0.146-0.617 0.137c-0.151 0.016-0.304-0-0.449-0.047s-0.278-0.124-0.391-0.225c-0.113-0.102-0.204-0.226-0.266-0.364s-0.095-0.289-0.095-0.441zM61.859 10.432v-0.301l-0.88 0.056c-0.496 0.033-0.721 0.202-0.721 0.52 0 0.324 0.281 0.513 0.668 0.513 0.113 0.011 0.228 0 0.337-0.034s0.21-0.089 0.297-0.162c0.087-0.073 0.158-0.164 0.21-0.265s0.082-0.213 0.090-0.326z"></path>
<path d="M63.501 9.956c0-1.138 0.585-1.859 1.495-1.859 0.225-0.010 0.449 0.044 0.644 0.156s0.355 0.277 0.46 0.476h0.053v-1.978h0.711v5.009h-0.681v-0.569h-0.056c-0.113 0.198-0.279 0.361-0.478 0.472s-0.425 0.165-0.653 0.157c-0.916 0-1.495-0.721-1.495-1.862zM64.236 9.956c0 0.764 0.36 1.224 0.962 1.224 0.599 0 0.97-0.466 0.97-1.221 0-0.751-0.374-1.224-0.97-1.224-0.598 0-0.962 0.463-0.962 1.221v0z"></path>
<path d="M69.807 9.955c-0.023-0.237 0.004-0.476 0.080-0.701s0.196-0.433 0.356-0.609c0.16-0.176 0.355-0.317 0.572-0.413s0.453-0.146 0.69-0.146c0.238 0 0.473 0.050 0.69 0.146s0.412 0.237 0.572 0.413c0.16 0.176 0.281 0.384 0.356 0.609s0.102 0.465 0.080 0.701c0.023 0.237-0.004 0.476-0.079 0.702s-0.196 0.434-0.356 0.61c-0.16 0.176-0.355 0.317-0.573 0.414s-0.453 0.146-0.691 0.146c-0.238 0-0.474-0.050-0.691-0.146s-0.413-0.237-0.573-0.414-0.281-0.384-0.356-0.61c-0.075-0.226-0.102-0.465-0.079-0.702zM72.473 9.955c0-0.781-0.351-1.238-0.966-1.238-0.618 0-0.966 0.457-0.966 1.238 0 0.787 0.348 1.24 0.966 1.24 0.616 0 0.966-0.456 0.966-1.24z"></path>
<path d="M74.158 8.156h0.684v0.572h0.053c0.090-0.206 0.242-0.378 0.435-0.493s0.416-0.167 0.64-0.149c0.175-0.013 0.351 0.013 0.515 0.077s0.311 0.164 0.431 0.293c0.12 0.129 0.209 0.283 0.261 0.45s0.066 0.345 0.040 0.519v2.332h-0.711v-2.153c0-0.579-0.252-0.867-0.777-0.867-0.119-0.006-0.238 0.015-0.348 0.059s-0.21 0.113-0.292 0.199-0.144 0.19-0.182 0.303c-0.038 0.113-0.051 0.233-0.039 0.351v2.107h-0.711v-3.602z"></path>
<path d="M81.235 7.259v0.913h0.78v0.599h-0.78v1.852c0 0.377 0.155 0.543 0.509 0.543 0.091-0 0.182-0.006 0.271-0.016v0.592c-0.127 0.023-0.257 0.035-0.386 0.036-0.791 0-1.106-0.278-1.106-0.973v-2.034h-0.572v-0.599h0.572v-0.913h0.712z"></path>
<path d="M82.986 6.75h0.705v1.985h0.056c0.094-0.208 0.251-0.381 0.447-0.496s0.424-0.168 0.651-0.149c0.174-0.009 0.349 0.020 0.51 0.085s0.307 0.166 0.426 0.294c0.119 0.128 0.207 0.281 0.26 0.448s0.068 0.343 0.045 0.516v2.326h-0.712v-2.15c0-0.575-0.268-0.867-0.77-0.867-0.122-0.010-0.246 0.007-0.361 0.049s-0.219 0.11-0.306 0.196-0.153 0.192-0.194 0.307c-0.042 0.115-0.058 0.238-0.046 0.36v2.104h-0.711v-5.009z"></path>
<path d="M90.232 10.786c-0.097 0.329-0.306 0.614-0.591 0.805s-0.629 0.275-0.97 0.238c-0.237 0.006-0.473-0.039-0.691-0.133s-0.413-0.234-0.571-0.411c-0.158-0.177-0.276-0.386-0.346-0.613s-0.088-0.466-0.056-0.702c-0.031-0.236-0.012-0.476 0.058-0.704s0.186-0.438 0.344-0.616 0.351-0.321 0.569-0.418c0.217-0.097 0.453-0.146 0.691-0.144 1.002 0 1.606 0.685 1.606 1.816v0.248h-2.543v0.040c-0.011 0.132 0.006 0.265 0.049 0.391s0.112 0.24 0.202 0.338c0.090 0.097 0.2 0.174 0.322 0.227s0.254 0.079 0.386 0.077c0.17 0.020 0.342-0.010 0.495-0.088s0.278-0.199 0.362-0.349h0.685zM87.731 9.625h1.819c0.009-0.121-0.007-0.242-0.048-0.356s-0.105-0.219-0.189-0.306c-0.083-0.088-0.184-0.157-0.296-0.204s-0.233-0.069-0.354-0.066c-0.123-0.002-0.246 0.022-0.359 0.068s-0.218 0.115-0.304 0.202c-0.087 0.087-0.156 0.19-0.202 0.304s-0.069 0.236-0.067 0.359v0z"></path>
</symbol>
<symbol id="icon-company1" viewBox="0 0 104 32">
<path fill="#ff385c" style="fill: var(--color18, #ff385c)" d="M30.057 22.679c-0.161-0.39-0.313-0.8-0.474-1.15l-0.746-1.67-0.030-0.030c-2.218-4.8-4.588-9.68-7.099-14.48l-0.101-0.2c-0.252-0.47-0.504-0.99-0.766-1.47-0.323-0.57-0.635-1.18-1.15-1.76-0.501-0.607-1.132-1.096-1.847-1.432s-1.496-0.51-2.287-0.51c-0.791 0-1.572 0.174-2.287 0.51s-1.346 0.825-1.847 1.432c-0.474 0.58-0.827 1.19-1.15 1.76-0.252 0.52-0.504 1.030-0.766 1.5l-0.101 0.2c-2.471 4.8-4.881 9.68-7.099 14.48l-0.061 0.060c-0.222 0.52-0.484 1.060-0.736 1.64-0.161 0.35-0.323 0.73-0.484 1.15-0.436 1.1-0.575 2.293-0.404 3.462s0.646 2.274 1.379 3.206c0.733 0.932 1.698 1.658 2.8 2.107s2.303 0.606 3.485 0.454c1.133-0.148 2.224-0.522 3.207-1.1 1.311-0.73 2.571-1.79 3.983-3.32 1.412 1.53 2.703 2.59 3.983 3.33 1.232 0.717 2.626 1.112 4.054 1.15 1.653 0.007 3.253-0.58 4.504-1.651s2.069-2.556 2.303-4.179c0.27-1.166 0.179-2.386-0.262-3.5v0.010zM15.576 24.339c-1.735-2.2-2.864-4.22-3.247-5.95-0.159-0.641-0.193-1.306-0.101-1.96 0.070-0.51 0.262-0.96 0.524-1.34 0.605-0.87 1.664-1.41 2.824-1.41 0.551-0.017 1.097 0.102 1.59 0.347s0.917 0.606 1.234 1.053c0.262 0.4 0.454 0.84 0.514 1.35 0.101 0.58 0.060 1.25-0.101 1.96-0.383 1.7-1.513 3.74-3.237 5.95zM28.423 25.819c-0.115 0.824-0.445 1.604-0.958 2.262s-1.191 1.171-1.966 1.488c-0.766 0.32-1.613 0.41-2.44 0.32-0.807-0.1-1.613-0.36-2.44-0.84-1.373-0.841-2.607-1.887-3.66-3.1 2.118-2.6 3.398-4.97 3.882-7.080 0.232-1 0.262-1.9 0.161-2.73-0.126-0.787-0.422-1.537-0.867-2.2-0.509-0.719-1.188-1.303-1.977-1.7s-1.665-0.597-2.551-0.58c-1.866 0-3.529 0.86-4.538 2.27-0.454 0.661-0.747 1.418-0.857 2.21-0.131 0.84-0.101 1.77 0.161 2.73 0.484 2.11 1.795 4.51 3.882 7.1-1.035 1.236-2.273 2.291-3.66 3.12-0.837 0.48-1.634 0.73-2.44 0.83-1.255 0.159-2.522-0.179-3.526-0.941s-1.665-1.887-1.838-3.129c-0.101-0.8-0.030-1.6 0.292-2.5 0.101-0.32 0.252-0.64 0.413-1.020 0.222-0.52 0.484-1.060 0.736-1.6l0.040-0.070c2.178-4.77 4.558-9.64 7.029-14.41l0.101-0.2c0.252-0.48 0.504-0.99 0.766-1.47 0.262-0.51 0.545-1 0.908-1.4 0.314-0.372 0.707-0.671 1.15-0.876s0.927-0.312 1.416-0.312c0.489 0 0.973 0.106 1.416 0.312s0.836 0.504 1.15 0.876c0.353 0.4 0.645 0.89 0.908 1.4 0.252 0.48 0.504 1 0.766 1.47l0.101 0.2c2.46 4.77 4.84 9.64 7.059 14.41l0.030 0.030c0.262 0.52 0.484 1.1 0.736 1.6 0.161 0.39 0.323 0.7 0.424 1.030 0.192 0.9 0.292 1.7 0.192 2.5zM42.46 24.119c-0.76 0.011-1.512-0.148-2.202-0.464s-1.298-0.784-1.781-1.366c-1.085-1.24-1.661-2.839-1.614-4.48-0.017-1.677 0.578-3.303 1.674-4.58 0.507-0.589 1.138-1.061 1.849-1.383s1.484-0.484 2.265-0.477c0.735-0.020 1.463 0.146 2.116 0.482s1.209 0.831 1.615 1.438l0.101-1.57h2.945v12.080h-2.955l-0.101-1.76c-0.419 0.649-0.999 1.18-1.684 1.544s-1.452 0.548-2.229 0.536zM43.226 21.239c0.585 0 1.099-0.16 1.583-0.45 0.444-0.32 0.807-0.74 1.089-1.25 0.252-0.51 0.383-1.12 0.383-1.8 0.039-0.59-0.077-1.181-0.336-1.714s-0.655-0.99-1.146-1.326c-0.472-0.292-1.017-0.446-1.573-0.446s-1.101 0.155-1.573 0.446c-0.444 0.32-0.807 0.74-1.089 1.25-0.267 0.562-0.398 1.179-0.383 1.8-0.039 0.591 0.077 1.181 0.336 1.714s0.655 0.99 1.146 1.326c0.474 0.29 0.988 0.45 1.563 0.45zM54.47 8.459c0 0.35-0.060 0.67-0.222 0.93-0.161 0.25-0.383 0.48-0.676 0.64s-0.605 0.22-0.928 0.22c-0.323 0-0.645-0.060-0.938-0.22-0.277-0.153-0.509-0.373-0.676-0.64-0.156-0.285-0.233-0.606-0.222-0.93 0-0.36 0.071-0.68 0.222-0.93 0.161-0.3 0.393-0.48 0.676-0.64 0.292-0.16 0.605-0.23 0.938-0.23 0.321-0.007 0.638 0.068 0.921 0.219s0.521 0.372 0.692 0.641c0.147 0.292 0.22 0.614 0.212 0.94zM51.041 23.759v-12.060h3.207v12.080h-3.217l0.010-0.020zM62.82 14.859v0.040c-0.151-0.070-0.353-0.1-0.504-0.13-0.202-0.040-0.363-0.040-0.555-0.040-0.898 0-1.573 0.26-2.017 0.8-0.484 0.55-0.706 1.32-0.706 2.31v5.93h-3.217v-12.080h2.955l0.101 1.83c0.323-0.64 0.706-1.12 1.25-1.48 0.542-0.35 1.179-0.524 1.825-0.5 0.232 0 0.454 0.020 0.645 0.060 0.101 0.030 0.161 0.030 0.222 0.060v3.2zM64.11 23.759v-17.020h3.207v6.5c0.454-0.58 0.968-1.030 1.614-1.38 1.022-0.497 2.182-0.638 3.295-0.4s2.112 0.84 2.836 1.71c1.087 1.243 1.663 2.845 1.613 4.49 0.017 1.677-0.578 3.303-1.674 4.58-0.507 0.589-1.138 1.061-1.849 1.383s-1.484 0.484-2.265 0.477c-0.735 0.020-1.463-0.146-2.116-0.482s-1.209-0.831-1.615-1.438l-0.101 1.57-2.945 0.030v-0.020zM70.312 21.239c0.575 0 1.089-0.16 1.573-0.45 0.444-0.32 0.807-0.74 1.089-1.25 0.262-0.51 0.383-1.12 0.383-1.8 0-0.67-0.121-1.28-0.383-1.79-0.265-0.492-0.637-0.919-1.089-1.25-0.472-0.292-1.017-0.446-1.573-0.446s-1.101 0.155-1.573 0.446c-0.454 0.32-0.807 0.74-1.099 1.25-0.267 0.562-0.398 1.179-0.383 1.8-0.039 0.591 0.077 1.181 0.336 1.714s0.655 0.99 1.146 1.326c0.474 0.29 0.988 0.45 1.573 0.45zM77.885 23.769v-12.080h2.955l0.101 1.57c0.371-0.602 0.898-1.094 1.526-1.427s1.333-0.492 2.044-0.463c0.813-0.014 1.612 0.21 2.297 0.644s1.226 1.059 1.555 1.796c0.353 0.76 0.545 1.7 0.545 2.75v7.24h-3.217v-6.82c0-0.84-0.192-1.5-0.575-1.99-0.383-0.48-0.908-0.74-1.573-0.74-0.484 0-0.908 0.1-1.281 0.32-0.353 0.23-0.645 0.52-0.867 0.93-0.224 0.415-0.336 0.88-0.323 1.35v6.92h-3.186zM90.51 23.769v-17.040h3.217v6.5c0.436-0.583 1.002-1.058 1.655-1.386s1.374-0.501 2.106-0.504c0.76-0.011 1.512 0.148 2.202 0.465s1.298 0.784 1.781 1.366c1.080 1.242 1.652 2.841 1.603 4.48 0.018 1.677-0.577 3.304-1.674 4.58-0.507 0.589-1.138 1.061-1.849 1.383s-1.484 0.484-2.265 0.477c-0.735 0.020-1.463-0.146-2.116-0.482s-1.209-0.831-1.615-1.438l-0.091 1.57-2.955 0.030zM96.742 21.239c0.585 0 1.099-0.16 1.573-0.45 0.454-0.32 0.807-0.74 1.099-1.25 0.252-0.51 0.383-1.12 0.383-1.8 0.039-0.59-0.077-1.181-0.336-1.714s-0.655-0.99-1.146-1.326c-0.472-0.292-1.017-0.446-1.573-0.446s-1.101 0.155-1.573 0.446c-0.444 0.32-0.807 0.74-1.089 1.25-0.281 0.557-0.413 1.177-0.383 1.8-0.039 0.591 0.077 1.181 0.336 1.714s0.655 0.99 1.146 1.326c0.474 0.29 0.958 0.45 1.563 0.45z"></path>
</symbol>
<symbol id="icon-company2" viewBox="0 0 113 32">
<path fill="#33475b" style="fill: var(--color16, #33475b)" d="M12.796 5.297v9.026h-8.224v-9.026h-3.905v21.547h3.905v-8.733h8.224v8.733h3.905v-21.547h-3.905z"></path>
<path fill="#33475b" style="fill: var(--color16, #33475b)" d="M29.197 19.879c0 0.864-0.34 1.692-0.946 2.302s-1.427 0.954-2.284 0.954c-0.857 0-1.678-0.343-2.284-0.954s-0.946-1.439-0.946-2.302v-9.229h-3.704v9.229c0 1.852 0.73 3.628 2.029 4.937s3.061 2.045 4.898 2.045 3.599-0.736 4.898-2.045c1.299-1.309 2.029-3.085 2.029-4.937v-9.229h-3.69v9.229z"></path>
<path fill="#33475b" style="fill: var(--color16, #33475b)" d="M56.638 11.601c0-1.892 1.242-2.491 2.602-2.491 1.096 0 2.544 0.841 3.491 1.861l2.426-2.881c-1.211-1.651-3.667-2.792-5.678-2.792-4.017 0-6.923 2.372-6.923 6.304 0 7.295 8.846 4.981 8.846 9.063 0 1.259-1.213 2.372-2.602 2.372-2.191 0-2.9-1.080-3.907-2.221l-2.692 2.821c1.722 2.131 3.845 3.213 6.39 3.213 3.817 0 6.887-2.401 6.887-6.153 0-8.099-8.846-5.582-8.846-9.094z"></path>
<path fill="#33475b" style="fill: var(--color16, #33475b)" d="M111.364 23.402c-2.189 0-2.81-0.955-2.81-2.416v-6.469h3.401v-3.278h-3.401v-4.325l-3.755 1.699v13.178c0 3.371 2.307 5.069 5.471 5.069 0.496 0.009 0.992-0.031 1.481-0.12l0.916-3.4c-0.413 0.029-0.888 0.058-1.303 0.058z"></path>
<path fill="#33475b" style="fill: var(--color16, #33475b)" d="M43.294 10.758c-1.835 0-3.115 0.536-4.352 1.761v-7.092h-3.709v13.145c0 4.921 3.53 8.292 7.495 8.292 4.4 0 8.27-3.43 8.27-8.051 0-4.562-3.562-8.053-7.704-8.053v-0.002zM43.271 23.101c-0.832 0-1.646-0.249-2.338-0.715s-1.232-1.129-1.55-1.904c-0.319-0.775-0.402-1.628-0.24-2.451s0.563-1.579 1.152-2.172c0.589-0.593 1.339-0.997 2.155-1.161s1.663-0.080 2.432 0.241c0.769 0.321 1.426 0.865 1.889 1.562s0.709 1.518 0.709 2.357c0 1.125-0.443 2.204-1.233 3s-1.86 1.243-2.976 1.243z"></path>
<path fill="#33475b" style="fill: var(--color16, #33475b)" d="M83.572 18.616c0-4.628-3.863-8.051-8.27-8.051-3.966 0-7.495 3.371-7.495 8.292v13.153h3.709v-7.102c1.236 1.223 2.518 1.761 4.35 1.761 4.142 0 7.704-3.488 7.704-8.053h0.002zM80.060 18.569c0 0.839-0.247 1.659-0.709 2.357s-1.12 1.241-1.889 1.563-1.615 0.405-2.432 0.241c-0.816-0.164-1.566-0.568-2.155-1.161s-0.989-1.349-1.152-2.172-0.079-1.676 0.239-2.451c0.319-0.775 0.858-1.438 1.55-1.904s1.506-0.715 2.338-0.715c1.116 0 2.187 0.447 2.976 1.243s1.233 1.875 1.233 3z"></path>
<path fill="#ff7a59" style="fill: var(--color17, #ff7a59)" d="M95.556 10.384v-3.756c0.493-0.232 0.91-0.6 1.203-1.062s0.45-0.997 0.452-1.545v-0.087c0-0.767-0.302-1.503-0.841-2.045s-1.268-0.847-2.029-0.847h-0.086c-0.761 0-1.491 0.305-2.029 0.847s-0.841 1.278-0.841 2.045v0.087c0.003 0.548 0.159 1.084 0.452 1.545s0.71 0.83 1.203 1.062v3.756c-1.416 0.218-2.749 0.81-3.865 1.714l-10.22-8.024c0.072-0.265 0.111-0.537 0.115-0.812 0.001-0.645-0.187-1.275-0.542-1.812s-0.859-0.955-1.449-1.203c-0.591-0.248-1.241-0.313-1.868-0.188s-1.204 0.434-1.657 0.889c-0.453 0.455-0.762 1.035-0.887 1.667s-0.063 1.287 0.181 1.883c0.244 0.596 0.658 1.105 1.189 1.464s1.156 0.551 1.796 0.551c0.559-0.003 1.108-0.153 1.592-0.436l10.065 7.893c-0.904 1.377-1.376 2.996-1.354 4.647s0.537 3.257 1.478 4.609l-3.061 3.085c-0.247-0.080-0.505-0.122-0.765-0.125-0.525 0-1.038 0.158-1.475 0.452s-0.776 0.712-0.977 1.201c-0.201 0.489-0.253 1.027-0.151 1.546s0.355 0.996 0.727 1.37c0.371 0.374 0.844 0.629 1.359 0.732s1.049 0.051 1.534-0.152c0.485-0.202 0.9-0.545 1.192-0.985s0.448-0.957 0.448-1.486c-0.003-0.262-0.045-0.522-0.124-0.771l3.028-3.053c0.987 0.766 2.136 1.294 3.357 1.544s2.483 0.214 3.688-0.104c1.206-0.318 2.323-0.909 3.267-1.73s1.689-1.847 2.178-3.002c0.489-1.155 0.709-2.408 0.644-3.662s-0.415-2.477-1.021-3.574c-0.606-1.097-1.454-2.040-2.478-2.756s-2.196-1.186-3.428-1.375zM94.301 22.736c-0.828-0.001-1.638-0.249-2.326-0.713s-1.225-1.124-1.541-1.896c-0.317-0.772-0.399-1.621-0.237-2.439s0.561-1.571 1.147-2.161c0.586-0.59 1.332-0.992 2.145-1.155s1.655-0.079 2.42 0.24c0.765 0.319 1.42 0.86 1.88 1.555s0.706 1.51 0.707 2.345c0 1.12-0.441 2.194-1.227 2.986s-1.851 1.237-2.963 1.237z"></path>
</symbol>
<symbol id="icon-company3" viewBox="0 0 97 32">
<path fill="#ea4335" style="fill: var(--color12, #ea4335)" d="M41.424 16.41c0 4.442-3.526 7.715-7.853 7.715s-7.853-3.273-7.853-7.715c0-4.473 3.526-7.715 7.853-7.715s7.853 3.242 7.853 7.715zM37.987 16.41c0-2.776-2.044-4.675-4.415-4.675s-4.415 1.899-4.415 4.675c0 2.748 2.044 4.675 4.415 4.675s4.415-1.93 4.415-4.675z"></path>
<path fill="#fbbc05" style="fill: var(--color13, #fbbc05)" d="M58.365 16.41c0 4.442-3.526 7.715-7.853 7.715s-7.853-3.273-7.853-7.715c0-4.47 3.526-7.715 7.853-7.715s7.853 3.242 7.853 7.715zM54.928 16.41c0-2.776-2.044-4.675-4.415-4.675s-4.415 1.899-4.415 4.675c0 2.748 2.044 4.675 4.415 4.675s4.415-1.93 4.415-4.675z"></path>
<path fill="#4285f4" style="fill: var(--color14, #4285f4)" d="M74.601 9.162v13.85c0 5.697-3.409 8.024-7.44 8.024-3.794 0-6.078-2.501-6.939-4.546l2.993-1.228c0.533 1.256 1.839 2.737 3.942 2.737 2.58 0 4.179-1.569 4.179-4.522v-1.11h-0.12c-0.769 0.936-2.252 1.753-4.122 1.753-3.914 0-7.5-3.36-7.5-7.684 0-4.355 3.586-7.743 7.5-7.743 1.867 0 3.349 0.817 4.122 1.725h0.12v-1.256h3.265v-0.003zM71.58 16.438c0-2.716-1.839-4.703-4.179-4.703-2.372 0-4.359 1.986-4.359 4.703 0 2.689 1.987 4.647 4.359 4.647 2.34 0 4.179-1.958 4.179-4.647z"></path>
<path fill="#34a853" style="fill: var(--color15, #34a853)" d="M79.983 1.044v22.609h-3.353v-22.609h3.353z"></path>
<path fill="#ea4335" style="fill: var(--color12, #ea4335)" d="M93.049 18.95l2.668 1.753c-0.861 1.256-2.936 3.419-6.522 3.419-4.447 0-7.768-3.388-7.768-7.715 0-4.588 3.349-7.715 7.384-7.715 4.062 0 6.049 3.186 6.699 4.908l0.356 0.876-10.465 4.271c0.801 1.548 2.047 2.337 3.794 2.337 1.751 0 2.965-0.849 3.854-2.136zM84.836 16.174l6.995-2.863c-0.385-0.964-1.542-1.635-2.905-1.635-1.747 0-4.179 1.52-4.091 4.497z"></path>
<path fill="#4285f4" style="fill: var(--color14, #4285f4)" d="M13.027 14.404v-3.273h11.192c0.109 0.57 0.166 1.245 0.166 1.976 0 2.456-0.681 5.492-2.876 7.656-2.135 2.191-4.864 3.36-8.478 3.36-6.699 0-12.332-5.377-12.332-11.979s5.633-11.979 12.332-11.979c3.706 0 6.346 1.433 8.329 3.301l-2.344 2.31c-1.422-1.315-3.349-2.337-5.989-2.337-4.892 0-8.718 3.885-8.718 8.706s3.826 8.706 8.718 8.706c3.173 0 4.98-1.256 6.138-2.396 0.939-0.925 1.556-2.247 1.8-4.052l-7.938 0.004z"></path>
</symbol>
<symbol id="icon-company4" viewBox="0 0 151 32">
<path fill="#737373" style="fill: var(--color7, #737373)" d="M53.617 18.431l-0.895 2.53h-0.075c-0.149-0.571-0.423-1.439-0.87-2.481l-4.798-12.031h-4.698v19.175h3.107v-11.832c0-0.744 0-1.588-0.025-2.629-0.025-0.521-0.075-0.918-0.099-1.216h0.075c0.149 0.744 0.323 1.29 0.447 1.637l5.767 13.991h2.188l5.718-14.115c0.124-0.322 0.249-0.967 0.373-1.513h0.075c-0.075 1.414-0.124 2.679-0.149 3.448v12.155h3.306v-19.15h-4.525l-4.922 12.031zM66.196 11.808h3.232v13.743h-3.232v-13.743zM67.837 6.003c-0.547 0-0.994 0.198-1.367 0.546s-0.572 0.794-0.572 1.34c0 0.521 0.199 0.967 0.572 1.315s0.82 0.521 1.367 0.521c0.547 0 1.019-0.198 1.367-0.521 0.373-0.347 0.572-0.794 0.572-1.315s-0.199-0.967-0.572-1.34c-0.323-0.347-0.795-0.546-1.367-0.546zM80.888 11.684c-0.597-0.124-1.218-0.198-1.815-0.198-1.467 0-2.809 0.322-3.928 0.967s-2.014 1.538-2.585 2.654c-0.597 1.141-0.895 2.456-0.895 3.969 0 1.315 0.298 2.481 0.87 3.547 0.572 1.042 1.367 1.885 2.436 2.456 1.019 0.571 2.213 0.868 3.555 0.868 1.541 0 2.859-0.323 3.903-0.918l0.025-0.025v-2.977l-0.124 0.099c-0.472 0.347-1.019 0.645-1.566 0.819-0.572 0.198-1.094 0.298-1.541 0.298-1.293 0-2.312-0.372-3.033-1.191-0.746-0.794-1.119-1.885-1.119-3.25 0-1.414 0.373-2.53 1.144-3.349s1.79-1.24 3.033-1.24c1.044 0 2.113 0.347 3.083 1.042l0.124 0.099v-3.15l-0.025-0.025c-0.423-0.174-0.895-0.372-1.541-0.496zM91.553 11.584c-0.795 0-1.541 0.248-2.188 0.769-0.547 0.447-0.92 1.091-1.243 1.86h-0.025v-2.406h-3.232v13.743h3.232v-7.020c0-1.191 0.249-2.183 0.796-2.902 0.547-0.744 1.243-1.116 2.088-1.116 0.298 0 0.597 0.074 0.969 0.124 0.348 0.099 0.597 0.198 0.771 0.322l0.124 0.099v-3.225l-0.075-0.025c-0.224-0.149-0.671-0.223-1.218-0.223zM100.353 11.51c-2.262 0-4.077 0.67-5.345 1.984-1.293 1.315-1.914 3.126-1.914 5.408 0 2.133 0.646 3.87 1.889 5.135 1.243 1.24 2.933 1.885 5.047 1.885 2.213 0 3.978-0.67 5.245-2.009 1.293-1.339 1.914-3.126 1.914-5.333 0-2.183-0.597-3.919-1.815-5.184-1.168-1.265-2.884-1.885-5.022-1.885zM102.939 22.078c-0.597 0.769-1.541 1.141-2.71 1.141s-2.113-0.372-2.784-1.191c-0.671-0.769-0.994-1.885-0.994-3.299 0-1.463 0.348-2.58 0.994-3.374 0.671-0.794 1.591-1.191 2.76-1.191 1.144 0 2.039 0.372 2.685 1.141s0.994 1.885 0.994 3.349c-0.050 1.488-0.323 2.654-0.945 3.423zM114.399 17.513c-1.019-0.422-1.666-0.744-1.964-1.017-0.249-0.248-0.373-0.595-0.373-1.042 0-0.372 0.149-0.744 0.522-0.992s0.796-0.372 1.417-0.372c0.547 0 1.119 0.099 1.666 0.248s1.044 0.372 1.442 0.67l0.124 0.099v-3.026l-0.075-0.025c-0.373-0.149-0.87-0.298-1.467-0.422-0.597-0.099-1.144-0.149-1.591-0.149-1.541 0-2.809 0.372-3.804 1.191-0.994 0.769-1.467 1.811-1.467 3.026 0 0.645 0.099 1.215 0.323 1.687s0.547 0.918 0.994 1.29c0.448 0.347 1.094 0.744 1.989 1.116 0.746 0.322 1.318 0.571 1.666 0.769s0.572 0.422 0.746 0.595c0.124 0.199 0.199 0.447 0.199 0.769 0 0.918-0.696 1.364-2.113 1.364-0.547 0-1.119-0.099-1.79-0.322s-1.293-0.546-1.815-0.918l-0.124-0.099v3.15l0.075 0.025c0.472 0.223 1.044 0.372 1.74 0.546 0.696 0.124 1.318 0.223 1.865 0.223 1.666 0 3.033-0.372 4.002-1.191 0.994-0.794 1.516-1.811 1.516-3.126 0-0.918-0.249-1.736-0.795-2.357-0.721-0.595-1.616-1.215-2.909-1.712zM126.63 11.51c-2.262 0-4.077 0.67-5.345 1.984s-1.914 3.126-1.914 5.408c0 2.133 0.646 3.87 1.889 5.135 1.243 1.24 2.934 1.885 5.046 1.885 2.213 0 3.978-0.67 5.246-2.009 1.294-1.339 1.915-3.126 1.915-5.333 0-2.183-0.597-3.919-1.815-5.184-1.168-1.265-2.884-1.885-5.022-1.885zM129.191 22.078c-0.597 0.769-1.542 1.141-2.71 1.141-1.194 0-2.113-0.372-2.784-1.191-0.672-0.769-0.995-1.885-0.995-3.299 0-1.463 0.348-2.58 0.995-3.374 0.671-0.794 1.59-1.191 2.759-1.191 1.119 0 2.038 0.372 2.684 1.141s0.994 1.885 0.994 3.349c0 1.488-0.324 2.654-0.944 3.423zM150.745 14.462v-2.654h-3.257v-4.068l-0.1 0.025-3.157 0.943v3.101h-4.873v-1.736c0-0.794 0.198-1.414 0.546-1.811s0.87-0.595 1.516-0.595c0.448 0 0.921 0.099 1.442 0.322l0.124 0.074v-2.803l-0.075-0.025c-0.447-0.149-1.044-0.248-1.814-0.248-0.97 0-1.815 0.223-2.586 0.595-0.77 0.422-1.343 0.992-1.765 1.761-0.422 0.744-0.646 1.588-0.646 2.555v1.91h-2.262v2.629h2.262v11.113h3.257v-11.088h4.873v7.070c0 2.902 1.367 4.366 4.102 4.366 0.447 0 0.919-0.074 1.366-0.149 0.473-0.099 0.821-0.223 1.020-0.322l0.025-0.025v-2.654l-0.124 0.099c-0.199 0.124-0.373 0.223-0.672 0.298-0.249 0.074-0.471 0.099-0.646 0.099-0.646 0-1.093-0.149-1.417-0.521-0.298-0.347-0.448-0.918-0.448-1.761v-6.499h3.307z"></path>
<path fill="#f25022" style="fill: var(--color8, #f25022)" d="M0.615 0h15.239v15.206h-15.239v-15.206z"></path>
<path fill="#7fba00" style="fill: var(--color9, #7fba00)" d="M17.445 0h15.239v15.206h-15.239v-15.206z"></path>
<path fill="#00a4ef" style="fill: var(--color10, #00a4ef)" d="M0.615 16.794h15.239v15.206h-15.239v-15.206z"></path>
<path fill="#ffb900" style="fill: var(--color11, #ffb900)" d="M17.445 16.794h15.239v15.206h-15.239v-15.206z"></path>
</symbol>
<symbol id="icon-company5" viewBox="0 0 138 32">
<path fill="#041e42" style="fill: var(--color5, #041e42)" d="M49.233 11.382v1.814h0.056c0.653-0.971 1.736-2.114 4.137-2.114 1.868 0 3.301 0.951 3.915 2.387h0.056c0.525-0.726 1.126-1.276 1.8-1.665 0.798-0.461 1.685-0.726 2.802-0.726 2.529 0 4.768 1.645 4.768 5.794v7.868h-3.856v-7.318c0-2.102-0.759-3.318-2.337-3.318-1.156 0-1.996 0.73-2.316 1.629-0.111 0.309-0.162 0.73-0.162 1.083v7.928h-3.856v-7.619c0-1.785-0.729-3.025-2.286-3.025-1.245 0-2.026 0.923-2.346 1.713-0.136 0.337-0.179 0.726-0.179 1.091v7.836h-3.86v-13.357h3.664zM86.668 11.382v2.52h0.107c0.708-1.926 2.388-2.821 3.864-2.821 0.371 0 0.576 0.028 0.874 0.084v3.499c-0.354-0.048-0.682-0.096-1.143-0.096-1.672 0-2.836 0.915-3.13 2.347-0.064 0.297-0.085 0.618-0.085 0.987v6.841h-3.958v-13.361h3.472zM96.887 6.957v4.205h3.344v3.402h-3.344v5.019c0 1.625 0.439 2.411 1.745 2.411 0.614 0 1.066-0.072 1.459-0.164l0.051 2.821c-0.525 0.185-1.642 0.385-2.776 0.385-1.335 0-2.448-0.437-3.126-1.115-0.776-0.774-1.134-2.042-1.134-3.848v-13.116h3.783zM42.882 24.739h-3.839v-17.782h3.839v17.782zM32.646 19.968c0 0.245-0.021 0.502-0.094 0.722-0.299 0.927-1.318 1.709-2.589 1.709-1.062 0-1.906-0.566-1.906-1.765 0-1.833 2.15-2.343 4.593-2.331v1.665h-0.004zM36.48 16.77c0-3.029-1.373-5.689-6.018-5.689-2.384 0-4.278 0.63-5.31 1.192l0.755 2.431c0.943-0.562 2.448-1.023 3.873-1.023 2.359-0.004 2.742 1.256 2.742 2.062v0.193c-5.139-0.008-8.385 1.665-8.385 5.075 0 2.082 1.651 4.032 4.525 4.032 1.77 0 3.246-0.662 4.133-1.725h0.085c0 0 0.589 2.307 3.822 1.424-0.171-0.963-0.226-1.986-0.226-3.218v-4.754h0.004zM4.855 6.957c0.397 1.882 1.523 7.346 1.523 7.346 0.473 2.247 0.908 4.602 1.237 6.464h0.060c0.32-1.978 0.823-3.852 1.361-6.171l1.898-7.639h4.201l1.774 7.836c0.465 2.179 0.836 3.86 1.13 5.886h0.055c0.32-2.046 0.738-3.796 1.194-6.034l1.706-7.687h4.031l-4.994 17.782c-3.182 0.654-4.401-0.55-4.837-2.459-0.435-1.914-1.288-5.553-1.288-5.553-0.439-1.994-0.78-3.398-1.019-5.445h-0.060c-0.341 2.026-0.699 3.447-1.228 5.441l-2.094 8.020c-3.25 0.61-4.376-0.293-4.999-2.744-0.537-2.098-3.89-15.038-3.89-15.038l4.239-0.004zM76.798 19.968c0 0.245-0.021 0.502-0.094 0.722-0.298 0.927-1.318 1.709-2.589 1.709-1.062 0-1.907-0.566-1.907-1.765 0-1.833 2.15-2.343 4.594-2.331v1.665h-0.004zM80.633 16.77c0-3.029-1.373-5.689-6.018-5.689-2.384 0-4.278 0.63-5.31 1.192l0.755 2.431c0.943-0.562 2.448-1.023 3.873-1.023 2.354-0.004 2.742 1.256 2.742 2.062v0.193c-5.135-0.008-8.381 1.665-8.381 5.075 0 2.082 1.655 4.032 4.525 4.032 1.766 0 3.246-0.662 4.129-1.725h0.090c0 0 0.589 2.307 3.821 1.424-0.171-0.963-0.226-1.986-0.226-3.218v-4.754z"></path>
<path fill="#ffc124" style="fill: var(--color6, #ffc124)" d="M115.791 18.614c0.378 0.649 0.353 1.374-0.051 1.705l-6.981 4.822c-0.727 0.415-1.815-0.088-2.432-1.14-0.621-1.056-0.51-2.233 0.217-2.648l7.729-3.544c0.485-0.184 1.139 0.155 1.518 0.804zM124.978 18.614c0.383-0.649 1.033-0.985 1.518-0.809l7.733 3.544c0.727 0.415 0.833 1.592 0.217 2.648-0.62 1.052-1.713 1.55-2.436 1.14l-6.981-4.822c-0.399-0.327-0.43-1.056-0.050-1.701zM120.383 21.229c0.761 0 1.386 0.385 1.471 0.892l0.752 8.371c0 0.83-0.982 1.508-2.219 1.508-1.233 0-2.219-0.679-2.219-1.508l0.748-8.371c0.085-0.507 0.71-0.892 1.467-0.892zM125.029 11.685l6.981-4.826c0.722-0.415 1.815 0.084 2.436 1.14 0.617 1.056 0.511 2.233-0.217 2.648l-7.733 3.549c-0.485 0.176-1.14-0.159-1.518-0.809-0.379-0.649-0.348-1.374 0.050-1.701zM114.273 14.194l-7.729-3.549c-0.723-0.415-0.833-1.592-0.217-2.648s1.709-1.554 2.432-1.14l6.981 4.826c0.404 0.323 0.429 1.052 0.051 1.701s-1.033 0.985-1.518 0.809zM118.916 9.879l-0.748-8.371c0-0.83 0.982-1.508 2.219-1.508s2.219 0.679 2.219 1.508l-0.752 8.371c-0.085 0.503-0.71 0.892-1.471 0.892-0.757 0-1.382-0.39-1.467-0.892zM136.334 25.108v-0.209h0.192c0.063 0 0.106 0.042 0.106 0.105 0 0.059-0.043 0.105-0.106 0.105h-0.192zM136.176 25.489c0 0.021 0.017 0.042 0.043 0.042h0.081c0.021 0 0.042-0.021 0.042-0.042v-0.239h0.132l0.107 0.251c0.007 0.017 0.021 0.029 0.038 0.029h0.097c0.030 0 0.052-0.029 0.038-0.059-0.038-0.075-0.076-0.155-0.114-0.235 0.064-0.021 0.161-0.084 0.161-0.235 0-0.159-0.132-0.251-0.263-0.251h-0.319c-0.021 0-0.043 0.021-0.043 0.042v0.695zM135.833 25.142c0-0.339 0.281-0.616 0.624-0.616 0.345 0 0.625 0.272 0.625 0.616 0 0.339-0.276 0.616-0.625 0.616-0.348 0-0.624-0.277-0.624-0.616zM135.684 25.142c0 0.419 0.343 0.762 0.773 0.762 0.426 0 0.774-0.343 0.774-0.762s-0.348-0.762-0.774-0.762c-0.43 0-0.773 0.343-0.773 0.762z"></path>
</symbol>
<symbol id="icon-company6" viewBox="0 0 108 32">
<path fill="#f60" style="fill: var(--color3, #f60)" d="M79.988 31.042l8.895-9.852-8.895-9.854h9.386l4.406 4.786 4.243-4.786h9.058l-8.853 9.813 8.975 9.893h-9.424l-4.366-4.826-4.325 4.826h-9.099z"></path>
<path fill="#f60" style="fill: var(--color3, #f60)" d="M79.988 6.919h-10.075v4.417h10.075v6.657h-10.075v6.111h10.075v6.938h-17.48v-31.042h17.48v6.919z"></path>
<path fill="#652c8f" style="fill: var(--color4, #652c8f)" d="M55.134 0v12.704h-0.081c-1.632-1.85-3.672-2.492-6.039-2.492-4.848 0-8.499 3.248-9.781 7.543-1.462-4.732-5.232-7.632-10.822-7.632-4.54 0-8.125 2.009-9.995 5.282v-4.068h-9.384v-4.417h10.24v-6.92h-18.605v31.043h8.365v-13.049h8.338c-0.249 0.959-0.381 1.985-0.381 3.068 0 6.475 5.019 11.019 11.423 11.019 5.386 0 8.935-2.492 10.812-7.036h-7.169c-0.97 1.365-1.705 1.771-3.644 1.771-2.248 0-4.186-1.933-4.186-4.225h14.597c0.633 5.143 4.697 9.579 10.275 9.579 2.406 0 4.609-1.167 5.956-3.136h0.081v2.010h7.374v-31.042h-7.374zM24.458 18.086c0.465-1.972 2.016-3.26 3.953-3.26 2.132 0 3.605 1.249 3.992 3.26 0.163 0-7.945 0-7.945 0zM50.659 26.316c-2.718 0-4.407-2.496-4.407-5.103 0-2.786 1.469-5.466 4.407-5.466 3.047 0 4.26 2.679 4.26 5.466-0 2.642-1.286 5.103-4.26 5.103z"></path>
</symbol>
<symbol id="icon-feature1" viewBox="0 0 32 32">
<path fill="#d6b1ff" style="fill: var(--color20, #d6b1ff)" d="M24 13.333h8l-4-5.333-4 5.333zM24 18.667h8l-4 5.333-4-5.333z"></path>
<path fill="#8c30f5" style="fill: var(--color19, #8c30f5)" d="M1.333 0h8v32h-8c-0.354 0-0.693-0.14-0.943-0.39s-0.391-0.589-0.391-0.943v-29.333c0-0.354 0.14-0.693 0.391-0.943s0.589-0.391 0.943-0.391z"></path>
<path fill="#2ec5ce" style="fill: var(--color21, #2ec5ce)" d="M12 0h8c0.354 0 0.693 0.14 0.943 0.391s0.39 0.589 0.39 0.943v29.333c0 0.354-0.14 0.693-0.39 0.943s-0.589 0.39-0.943 0.39h-8v-32z"></path>
</symbol>
<symbol id="icon-feature2" viewBox="0 0 32 32">
<path fill="#8c30f5" style="fill: var(--color19, #8c30f5)" d="M5.333 1.333h25.333l-4 8h-25.333l4-8z"></path>
<path fill="#2ec5ce" style="fill: var(--color21, #2ec5ce)" d="M5.333 12h25.333l-4 8h-25.333l4-8z"></path>
<path fill="#d6b1ff" style="fill: var(--color20, #d6b1ff)" d="M5.333 22.667h25.333l-4 8h-25.333l4-8z"></path>
</symbol>
<symbol id="icon-feature3" viewBox="0 0 32 32">
<path fill="#2ec5ce" style="fill: var(--color21, #2ec5ce)" d="M30.667 8v-5.333c0-0.354-0.14-0.693-0.39-0.943s-0.589-0.391-0.943-0.391h-26.667c-0.354 0-0.693 0.14-0.943 0.391s-0.391 0.589-0.391 0.943v5.333h29.333z"></path>
<path fill="#d6b1ff" style="fill: var(--color20, #d6b1ff)" d="M1.333 10.667v18.667c0 0.354 0.14 0.693 0.391 0.943s0.589 0.39 0.943 0.39h6.667v-20h-8z"></path>
<path fill="#8c30f5" style="fill: var(--color19, #8c30f5)" d="M12 30.667h17.333c0.354 0 0.693-0.14 0.943-0.39s0.391-0.589 0.391-0.943v-18.667h-18.667v20z"></path>
</symbol>
<symbol id="icon-feature4" viewBox="0 0 32 32">
<path fill="#d6b1ff" style="fill: var(--color20, #d6b1ff)" d="M28 32h-12c-0.354 0-0.693-0.14-0.943-0.39s-0.39-0.589-0.39-0.943v-2.667c0-0.354 0.14-0.693 0.39-0.943s0.589-0.39 0.943-0.39h12c0.354 0 0.693 0.14 0.943 0.39s0.39 0.589 0.39 0.943v2.667c0 0.354-0.14 0.693-0.39 0.943s-0.589 0.39-0.943 0.39z"></path>
<path fill="#2ec5ce" style="fill: var(--color21, #2ec5ce)" d="M28 0h-24c-0.354 0-0.693 0.14-0.943 0.391s-0.391 0.589-0.391 0.943v2.667c0 0.354 0.14 0.693 0.391 0.943s0.589 0.391 0.943 0.391h24c0.354 0 0.693-0.14 0.943-0.391s0.39-0.589 0.39-0.943v-2.667c0-0.354-0.14-0.693-0.39-0.943s-0.589-0.391-0.943-0.391z"></path>
<path fill="#8c30f5" style="fill: var(--color19, #8c30f5)" d="M28 8h-24c-0.354 0-0.693 0.14-0.943 0.391s-0.391 0.589-0.391 0.943v13.333c0 0.354 0.14 0.693 0.391 0.943s0.589 0.39 0.943 0.39h24c0.354 0 0.693-0.14 0.943-0.39s0.39-0.589 0.39-0.943v-13.333c0-0.354-0.14-0.693-0.39-0.943s-0.589-0.391-0.943-0.391z"></path>
</symbol>
<symbol id="icon-feature5" viewBox="0 0 32 32">
<path fill="#d6b1ff" style="fill: var(--color20, #d6b1ff)" d="M6.667 1.333h-4c-0.354 0-0.693 0.14-0.943 0.391s-0.391 0.589-0.391 0.943v26.667c0 0.354 0.14 0.693 0.391 0.943s0.589 0.39 0.943 0.39h4v-29.333z"></path>
<path fill="#8c30f5" style="fill: var(--color19, #8c30f5)" d="M9.333 30.667h13.333v-29.333h-13.333v29.333zM16 25.333c-0.354 0-0.693-0.14-0.943-0.39s-0.39-0.589-0.39-0.943c0-0.354 0.14-0.693 0.39-0.943s0.589-0.39 0.943-0.39 0.693 0.14 0.943 0.39c0.25 0.25 0.39 0.589 0.39 0.943s-0.14 0.693-0.39 0.943c-0.25 0.25-0.589 0.39-0.943 0.39zM16 6.667c0.354 0 0.693 0.14 0.943 0.391s0.39 0.589 0.39 0.943-0.14 0.693-0.39 0.943c-0.25 0.25-0.589 0.391-0.943 0.391s-0.693-0.14-0.943-0.391c-0.25-0.25-0.39-0.589-0.39-0.943s0.14-0.693 0.39-0.943c0.25-0.25 0.589-0.391 0.943-0.391zM16 14.667c0.354 0 0.693 0.14 0.943 0.39s0.39 0.589 0.39 0.943c0 0.354-0.14 0.693-0.39 0.943s-0.589 0.39-0.943 0.39-0.693-0.14-0.943-0.39c-0.25-0.25-0.39-0.589-0.39-0.943s0.14-0.693 0.39-0.943c0.25-0.25 0.589-0.39 0.943-0.39z"></path>
<path fill="#2ec5ce" style="fill: var(--color21, #2ec5ce)" d="M29.333 1.333h-4v29.333h4c0.354 0 0.693-0.14 0.943-0.39s0.391-0.589 0.391-0.943v-26.667c0-0.354-0.14-0.693-0.391-0.943s-0.589-0.391-0.943-0.391z"></path>
</symbol>
<symbol id="icon-feature6" viewBox="0 0 32 32">
<path fill="#8c30f5" style="fill: var(--color19, #8c30f5)" d="M15.208 0.176l-14.427 6.74c-0.098 0.045-0.18 0.117-0.238 0.207s-0.089 0.195-0.088 0.303c0 0.107 0.031 0.212 0.089 0.303s0.141 0.162 0.239 0.206l14.54 6.691c0.429 0.197 0.925 0.197 1.355 0l14.54-6.691c0.098-0.044 0.181-0.116 0.239-0.206s0.089-0.195 0.090-0.302-0.030-0.212-0.088-0.303c-0.058-0.090-0.14-0.162-0.238-0.207l-14.428-6.74c-0.248-0.116-0.518-0.176-0.792-0.176s-0.544 0.060-0.792 0.176z"></path>
<path fill="#d6b1ff" style="fill: var(--color20, #d6b1ff)" opacity="0.64" d="M31.22 15.568l-2.98-1.392c-0.213-0.1-0.446-0.152-0.682-0.152s-0.468 0.050-0.682 0.148l-10.199 4.693c-0.212 0.098-0.444 0.148-0.677 0.148s-0.465-0.051-0.677-0.148l-10.2-4.693c-0.214-0.098-0.446-0.149-0.682-0.148s-0.468 0.053-0.681 0.152l-2.98 1.392c-0.098 0.045-0.18 0.117-0.238 0.207s-0.088 0.196-0.088 0.303 0.031 0.212 0.090 0.302c0.058 0.090 0.141 0.162 0.239 0.206l14.54 6.689c0.212 0.098 0.443 0.149 0.677 0.149s0.465-0.051 0.677-0.149l14.54-6.689c0.098-0.044 0.181-0.116 0.239-0.206s0.089-0.195 0.090-0.302-0.030-0.213-0.088-0.303c-0.058-0.091-0.14-0.162-0.238-0.207z"></path>
<path fill="#2ec5ce" style="fill: var(--color21, #2ec5ce)" d="M31.22 24.144l-2.98-1.392c-0.213-0.1-0.446-0.152-0.681-0.152s-0.468 0.050-0.683 0.148l-10.199 4.692c-0.212 0.098-0.444 0.148-0.677 0.148s-0.465-0.050-0.677-0.148l-10.2-4.693c-0.214-0.098-0.446-0.149-0.682-0.148s-0.468 0.053-0.681 0.152l-2.98 1.393c-0.097 0.045-0.179 0.117-0.237 0.207s-0.088 0.195-0.088 0.302c0 0.107 0.031 0.212 0.089 0.302s0.141 0.162 0.238 0.206l14.54 6.691c0.429 0.197 0.925 0.197 1.355 0l14.54-6.691c0.097-0.044 0.18-0.116 0.238-0.206s0.089-0.195 0.089-0.302-0.030-0.212-0.088-0.302c-0.058-0.090-0.14-0.162-0.237-0.207z"></path>
</symbol>
<symbol id="icon-book-show" viewBox="0 0 111 32">
<path fill="#d61920" style="fill: var(--color1, #d61920)" d="M69.982 9.454l-1.835-3.077-3.257 1.539-1.835-3.086-3.257 1.548-1.826-3.095-3.257 1.548-1.835-3.086-3.257 1.548-1.826-3.095-3.266 1.548-6.908 22.323 8.394 2.549c0.316-1.006 0.985-1.867 1.885-2.427s1.972-0.782 3.022-0.625 2.010 0.68 2.705 1.477c0.695 0.797 1.080 1.814 1.085 2.868v0.091c0.018 0.401-0.028 0.801-0.147 1.202l8.532 2.595 6.881-22.341z"></path>
<path fill="#fefefe" style="fill: var(--color2, #fefefe)" d="M44.827 22.227c-0.212-0.035-0.405-0.144-0.543-0.308s-0.212-0.371-0.21-0.584v-10.925c-0.001-0.12 0.022-0.239 0.067-0.35s0.113-0.212 0.199-0.297c0.085-0.085 0.187-0.152 0.299-0.197s0.232-0.068 0.352-0.067h7.954c0.469-0.001 0.933 0.089 1.366 0.266s0.828 0.437 1.16 0.765c0.332 0.328 0.596 0.718 0.777 1.147s0.274 0.889 0.275 1.355v8.303c-0 0.134-0.030 0.267-0.088 0.388s-0.142 0.228-0.246 0.313c-0.104 0.085-0.226 0.147-0.357 0.18s-0.268 0.037-0.4 0.011c-0.211-0.037-0.401-0.147-0.537-0.31s-0.209-0.37-0.206-0.582v-8.294c0-0.459-0.184-0.899-0.511-1.223s-0.77-0.507-1.233-0.507h-1.734v10.014c0.001 0.122-0.023 0.243-0.071 0.355s-0.117 0.215-0.205 0.3c-0.104 0.103-0.233 0.179-0.373 0.222s-0.29 0.051-0.434 0.024c-0.212-0.035-0.405-0.144-0.543-0.308s-0.212-0.371-0.209-0.584v-10.023h-3.468v10.014c0.001 0.134-0.028 0.266-0.085 0.388s-0.14 0.229-0.243 0.315c-0.103 0.086-0.225 0.148-0.355 0.183s-0.267 0.040-0.4 0.015zM58.056 26.988c-0.214-0.035-0.408-0.146-0.546-0.311s-0.212-0.375-0.206-0.59c0.001-0.239 0.097-0.468 0.266-0.637 0.169-0.172 0.4-0.27 0.642-0.273 0.78 0 1.45-0.492 1.67-1.229l0.945-3.123-3.092-10.26c-0.037-0.115-0.050-0.236-0.040-0.356s0.045-0.237 0.101-0.343c0.056-0.107 0.133-0.201 0.227-0.278s0.201-0.135 0.317-0.17c0.231-0.064 0.478-0.037 0.69 0.075s0.372 0.3 0.448 0.526l2.294 7.647 2.33-7.647c0.11-0.419 0.578-0.701 1.055-0.61l0.064 0.009c0.495 0.155 0.771 0.674 0.624 1.156l-3.183 10.524-1.009 3.368c-0.226 0.725-0.675 1.361-1.284 1.821-0.619 0.461-1.373 0.71-2.147 0.71-0.055 0.002-0.11-0.001-0.165-0.009z"></path>
<path fill="#333545" style="fill: var(--color3, #333545)" d="M1.984 20.233h1.798c0.479 0 0.939-0.189 1.278-0.525s0.529-0.793 0.529-1.268v-5.253c0.001-0.236-0.044-0.469-0.134-0.687s-0.222-0.416-0.389-0.584-0.366-0.3-0.584-0.392c-0.219-0.091-0.454-0.139-0.691-0.14h-1.807v8.849zM0.855 22.109c-0.22-0.037-0.42-0.151-0.563-0.321s-0.22-0.386-0.217-0.607v-16.314c-0.002-0.125 0.022-0.249 0.069-0.364s0.117-0.221 0.206-0.309c0.107-0.111 0.241-0.193 0.388-0.241s0.304-0.059 0.456-0.032c0.459 0.091 0.789 0.473 0.789 0.938v4.643h1.798c0.487-0.001 0.97 0.093 1.421 0.277s0.86 0.455 1.206 0.797 0.619 0.748 0.806 1.194c0.187 0.447 0.283 0.926 0.283 1.41v5.253c-0.002 0.975-0.394 1.909-1.088 2.598s-1.636 1.077-2.618 1.080h-2.761c-0.061 0.004-0.123 0.001-0.183-0.009l0.009 0.009z"></path>
<path fill="#333545" style="fill: var(--color3, #333545)" d="M13.965 11.312c-0.103-0.018-0.207-0.027-0.312-0.027-0.238-0.002-0.474 0.042-0.694 0.132s-0.421 0.221-0.589 0.388c-0.168 0.167-0.301 0.366-0.391 0.584s-0.135 0.453-0.133 0.689v5.471c-0.001 0.236 0.045 0.47 0.135 0.688s0.223 0.416 0.392 0.583c0.168 0.167 0.368 0.299 0.588 0.389s0.455 0.135 0.693 0.134c0.479 0 0.939-0.189 1.278-0.525s0.529-0.793 0.529-1.268v-5.462c0-0.883-0.633-1.621-1.495-1.775zM13.002 22.191c-0.86-0.15-1.639-0.597-2.2-1.262s-0.867-1.504-0.864-2.371v-5.471c-0.002-0.484 0.094-0.964 0.282-1.411s0.463-0.853 0.81-1.193c0.345-0.342 0.754-0.613 1.204-0.797s0.933-0.279 1.42-0.277c0.983 0 1.926 0.388 2.621 1.077s1.086 1.625 1.086 2.601v5.471c0 0.983-0.385 1.912-1.092 2.613-0.343 0.341-0.751 0.612-1.199 0.796s-0.93 0.279-1.415 0.278c-0.218 0.001-0.436-0.017-0.651-0.055zM23.827 11.321c-0.103-0.018-0.207-0.027-0.312-0.027-0.238-0.002-0.474 0.042-0.695 0.132s-0.421 0.221-0.589 0.388c-0.168 0.167-0.301 0.366-0.391 0.584s-0.135 0.453-0.133 0.689v5.471c-0.001 0.236 0.045 0.47 0.135 0.688s0.224 0.416 0.392 0.583c0.168 0.167 0.368 0.299 0.588 0.389s0.455 0.135 0.693 0.134c0.238 0.001 0.473-0.044 0.693-0.134s0.42-0.222 0.588-0.389c0.168-0.167 0.301-0.365 0.392-0.583s0.136-0.452 0.135-0.688v-5.471c0-0.874-0.633-1.611-1.495-1.766zM22.864 22.191c-0.859-0.152-1.635-0.6-2.194-1.264s-0.864-1.503-0.861-2.368v-5.471c0.001-0.537 0.121-1.066 0.35-1.552s0.562-0.917 0.976-1.262c0.414-0.345 0.899-0.596 1.421-0.736s1.068-0.165 1.601-0.073c0.86 0.148 1.64 0.593 2.203 1.255s0.871 1.501 0.871 2.368v5.471c0.001 0.486-0.096 0.968-0.285 1.417s-0.467 0.855-0.816 1.196c-0.343 0.341-0.751 0.612-1.199 0.796s-0.93 0.279-1.415 0.278c-0.22 0-0.44-0.018-0.651-0.055zM30.451 22.227c-0.22-0.037-0.42-0.151-0.563-0.321s-0.22-0.386-0.217-0.608v-16.432c0-0.255 0.092-0.501 0.275-0.674 0.108-0.106 0.241-0.185 0.386-0.229s0.299-0.053 0.449-0.026c0.459 0.073 0.798 0.464 0.798 0.929v9.723l4.385-4.88c0.22-0.237 0.55-0.346 0.881-0.291 0.167 0.028 0.323 0.099 0.452 0.207s0.227 0.248 0.283 0.406c0.056 0.158 0.069 0.328 0.036 0.492s-0.109 0.317-0.221 0.442l-3.312 3.669 3.422 6.218c0.062 0.105 0.101 0.221 0.117 0.341s0.007 0.243-0.025 0.36c-0.036 0.121-0.095 0.233-0.176 0.33s-0.18 0.177-0.292 0.235c-0.194 0.111-0.422 0.15-0.642 0.109-0.137-0.023-0.267-0.076-0.381-0.154s-0.209-0.181-0.279-0.301l-3.082-5.626-1.174 1.284v3.869c0 0.251-0.101 0.492-0.279 0.669s-0.422 0.277-0.675 0.277c-0.064 0-0.119 0-0.183-0.018h0.018zM72.478 22.218c-0.516-0.086-1.006-0.285-1.435-0.582s-0.785-0.687-1.043-1.138c-0.126-0.221-0.159-0.483-0.092-0.728 0.073-0.237 0.229-0.437 0.44-0.564 0.196-0.106 0.423-0.142 0.642-0.1 0.275 0.046 0.523 0.209 0.661 0.455 0.248 0.419 0.642 0.692 1.128 0.774 0.251 0.043 0.508 0.030 0.753-0.040s0.47-0.193 0.66-0.361c0.367-0.337 0.55-0.819 0.505-1.293-0.010-0.243-0.078-0.48-0.197-0.691s-0.288-0.393-0.491-0.529l-2.569-1.812c-0.419-0.292-0.767-0.671-1.021-1.112s-0.406-0.931-0.447-1.437c-0.033-0.51 0.051-1.022 0.247-1.495s0.497-0.896 0.882-1.236c0.375-0.346 0.824-0.605 1.312-0.758s1.006-0.196 1.513-0.125c1.083 0.182 1.963 0.801 2.468 1.675 0.122 0.218 0.153 0.475 0.088 0.716s-0.222 0.448-0.437 0.577c-0.194 0.111-0.422 0.149-0.642 0.109-0.137-0.023-0.267-0.076-0.381-0.154s-0.21-0.181-0.279-0.301c-0.115-0.193-0.272-0.359-0.459-0.485s-0.4-0.209-0.624-0.244c-0.229-0.041-0.464-0.029-0.687 0.036s-0.428 0.18-0.598 0.337c-0.166 0.156-0.296 0.346-0.38 0.556s-0.12 0.437-0.106 0.664c0.018 0.446 0.275 0.883 0.661 1.138l2.569 1.775c0.436 0.303 0.797 0.701 1.054 1.163s0.405 0.977 0.432 1.504c0.043 0.525-0.039 1.053-0.238 1.541s-0.51 0.924-0.909 1.272c-0.388 0.357-0.851 0.625-1.355 0.782s-1.038 0.201-1.562 0.128l-0.073-0.018h0.009zM79.845 22.245c-0.22-0.038-0.42-0.152-0.564-0.322s-0.224-0.384-0.225-0.606v-16.432c-0.001-0.125 0.023-0.248 0.070-0.364s0.118-0.22 0.207-0.308c0.089-0.088 0.195-0.158 0.311-0.205s0.241-0.071 0.367-0.070l0.183 0.009c0.459 0.091 0.771 0.464 0.771 0.938v4.643h1.807c0.487-0.001 0.97 0.093 1.42 0.278s0.859 0.455 1.204 0.797c0.344 0.342 0.617 0.748 0.803 1.194s0.28 0.926 0.28 1.409v8.102c0.001 0.138-0.029 0.273-0.087 0.398s-0.143 0.235-0.249 0.324c-0.106 0.089-0.23 0.153-0.364 0.189s-0.274 0.042-0.41 0.018c-0.459-0.082-0.789-0.473-0.789-0.938v-8.102c0-0.235-0.047-0.468-0.138-0.685s-0.224-0.414-0.392-0.58c-0.168-0.166-0.367-0.297-0.586-0.386s-0.454-0.134-0.691-0.133h-1.807v9.896c0.001 0.138-0.029 0.275-0.087 0.401s-0.144 0.237-0.251 0.325c-0.107 0.089-0.232 0.153-0.367 0.188s-0.276 0.040-0.413 0.014v0.009zM92.946 11.33c-0.26-0.047-0.527-0.036-0.783 0.031s-0.493 0.19-0.695 0.358c-0.202 0.169-0.365 0.379-0.476 0.617s-0.168 0.497-0.166 0.759v5.471c-0.002 0.235 0.045 0.468 0.134 0.686s0.222 0.415 0.389 0.582c0.168 0.167 0.366 0.299 0.585 0.389s0.453 0.137 0.69 0.137c0.477 0 0.936-0.182 1.276-0.519 0.169-0.166 0.304-0.365 0.396-0.584s0.137-0.454 0.136-0.691v-5.48c0-0.874-0.623-1.621-1.495-1.766l0.009 0.009zM91.973 22.182c-0.858-0.15-1.635-0.596-2.194-1.259s-0.864-1.5-0.861-2.365v-5.471c0-0.537 0.119-1.068 0.347-1.555s0.562-0.919 0.976-1.265 0.899-0.598 1.422-0.738c0.522-0.14 1.069-0.166 1.603-0.074 0.861 0.148 1.643 0.594 2.205 1.259s0.87 1.505 0.867 2.373v5.471c0.001 0.485-0.096 0.965-0.285 1.412s-0.467 0.852-0.815 1.192c-0.421 0.419-0.937 0.731-1.507 0.909s-1.172 0.216-1.759 0.111z"></path>
<path fill="#333545" style="fill: var(--color3, #333545)" d="M110.991 10.574c0.031-0.116 0.039-0.236 0.024-0.355s-0.056-0.233-0.115-0.337c-0.070-0.111-0.161-0.206-0.268-0.281s-0.228-0.128-0.356-0.156c-0.237-0.044-0.482 0.003-0.685 0.131s-0.349 0.329-0.408 0.561c0 0.045-1.027 4.151-1.834 7.274l-0.019 0.064-0.019-0.064-1.835-7.265c-0.035-0.177-0.125-0.34-0.256-0.465s-0.298-0.208-0.477-0.236c-0.055-0.011-0.11-0.017-0.165-0.018-0.423 0-0.789 0.291-0.909 0.71-0.009 0.045-1.037 4.151-1.835 7.274l-0.019 0.064-0.018-0.064c-0.78-3.123-1.835-7.228-1.835-7.274-0.044-0.174-0.136-0.332-0.269-0.455s-0.296-0.205-0.475-0.237c-0.152-0.027-0.31-0.015-0.456 0.033s-0.28 0.132-0.387 0.244c-0.107 0.112-0.184 0.248-0.224 0.397s-0.042 0.305-0.006 0.455l2.761 10.952c0.052 0.201 0.169 0.379 0.333 0.507s0.365 0.2 0.574 0.203c0.45 0 0.808-0.291 0.899-0.71l1.835-7.274 0.028-0.064 0.018 0.064c0.808 3.159 1.835 7.283 1.835 7.283 0.055 0.197 0.172 0.371 0.333 0.497s0.36 0.198 0.566 0.204c0.211 0.007 0.419-0.061 0.584-0.191s0.28-0.314 0.323-0.519l2.753-10.952z"></path>
</symbol>
<symbol id="icon-modal" viewBox="0 0 32 32">
<path d="M32 3.223l-3.223-3.223-12.777 12.777-12.777-12.777-3.223 3.223 12.777 12.777-12.777 12.777 3.223 3.223 12.777-12.777 12.777 12.777 3.223-3.223-12.777-12.777 12.777-12.777z"></path>
</symbol>
<symbol id="icon-modal-name" viewBox="0 0 32 32">
<path d="M30 19l-9 9-3-3-2 2 5 5 11-11z"></path>
<path d="M14 24h10v-3.598c-2.101-1.225-4.885-2.066-8-2.321v-1.649c2.203-1.242 4-4.337 4-7.432 0-4.971 0-9-6-9s-6 4.029-6 9c0 3.096 1.797 6.191 4 7.432v1.649c-6.784 0.555-12 3.888-12 7.918h14v-2z"></path>
</symbol>
<symbol id="icon-modal-phone" viewBox="0 0 32 32">
<path d="M22 20c-2 2-2 4-4 4s-4-2-6-4-4-4-4-6 2-2 4-4-4-8-6-8-6 6-6 6c0 4 4.109 12.109 8 16s12 8 16 8c0 0 6-4 6-6s-6-8-8-6z"></path>
</symbol>
<symbol id="icon-modal-email" viewBox="0 0 32 32">
<path d="M29 4h-26c-1.65 0-3 1.35-3 3v20c0 1.65 1.35 3 3 3h26c1.65 0 3-1.35 3-3v-20c0-1.65-1.35-3-3-3zM12.461 17.199l-8.461 6.59v-15.676l8.461 9.086zM5.512 8h20.976l-10.488 7.875-10.488-7.875zM12.79 17.553l3.21 3.447 3.21-3.447 6.58 8.447h-19.579l6.58-8.447zM19.539 17.199l8.461-9.086v15.676l-8.461-6.59z"></path>
</symbol>
<symbol id="icon-checkbox" viewBox="0 0 32 32">
<path d="M32 2c0-1.422-0.298-2.775-0.833-4-1.049 2.401-3.014 4.31-5.453 5.287-2.694-2.061-6.061-3.287-9.714-3.287s-7.021 1.226-9.714 3.287c-2.439-0.976-4.404-2.886-5.453-5.287-0.535 1.225-0.833 2.578-0.833 4 0 2.299 0.777 4.417 2.081 6.106-1.324 2.329-2.081 5.023-2.081 7.894 0 8.837 7.163 16 16 16s16-7.163 16-16c0-2.871-0.757-5.565-2.081-7.894 1.304-1.689 2.081-3.806 2.081-6.106zM18.003 11.891c0.064-1.483 1.413-2.467 2.55-3.036 1.086-0.543 2.16-0.814 2.205-0.826 0.536-0.134 1.079 0.192 1.213 0.728s-0.192 1.079-0.728 1.213c-0.551 0.139-1.204 0.379-1.779 0.667 0.333 0.357 0.537 0.836 0.537 1.363 0 1.105-0.895 2-2 2s-2-0.895-2-2c0-0.037 0.001-0.073 0.003-0.109zM8.030 8.758c0.134-0.536 0.677-0.862 1.213-0.728 0.045 0.011 1.119 0.283 2.205 0.826 1.137 0.569 2.486 1.553 2.55 3.036 0.002 0.036 0.003 0.072 0.003 0.109 0 1.105-0.895 2-2 2s-2-0.895-2-2c0-0.527 0.204-1.005 0.537-1.363-0.575-0.288-1.228-0.528-1.779-0.667-0.536-0.134-0.861-0.677-0.728-1.213zM16 26c-3.641 0-6.827-1.946-8.576-4.855l2.573-1.544c1.224 2.036 3.454 3.398 6.003 3.398s4.779-1.362 6.003-3.398l2.573 1.544c-1.749 2.908-4.935 4.855-8.576 4.855z"></path>
</symbol>
<symbol id="icon-mob-menu" viewBox="0 0 32 32">
<path d="M2 6h28v6h-28zM2 14h28v6h-28zM2 22h28v6h-28z"></path>
</symbol>
<symbol id="icon-close-mob-menu" viewBox="0 0 32 32">
<path d="M2.346 31.755c-0.538 0-1.075-0.205-1.485-0.615-0.82-0.82-0.82-2.15 0-2.97l27.308-27.308c0.82-0.82 2.151-0.82 2.97 0 0.821 0.82 0.821 2.15 0 2.971l-27.308 27.308c-0.41 0.41-0.947 0.615-1.485 0.615z"></path>
<path d="M29.654 31.755c-0.537 0-1.075-0.205-1.485-0.615l-27.308-27.308c-0.82-0.82-0.82-2.15 0-2.971s2.151-0.82 2.971 0l27.308 27.308c0.821 0.82 0.821 2.15 0 2.97-0.41 0.411-0.948 0.616-1.485 0.616z"></path>
</symbol>
</defs>
</svg>
